<svg xmlns="http://www.w3.org/2000/svg" xmlns:xlink="http://www.w3.org/1999/xlink" width="487" zoomAndPan="magnify" viewBox="0 0 365.25 107.999999" height="144" preserveAspectRatio="xMidYMid meet" version="1.0"><defs><g/><clipPath id="614a692250"><path d="M 7.035156 7.828125 L 114.066406 7.828125 L 114.066406 94.648438 L 7.035156 94.648438 Z M 7.035156 7.828125 " clip-rule="nonzero"/></clipPath><clipPath id="4b3f78da5d"><path d="M 101.140625 55.640625 C 101.140625 52.070312 104.035156 49.195312 107.613281 49.195312 C 111.1875 49.195312 114.066406 52.085938 114.066406 55.640625 C 114.066406 59.210938 111.171875 62.085938 107.613281 62.085938 C 106.496094 62.085938 105.433594 61.804688 104.515625 61.304688 L 99.859375 68.148438 C 100.957031 69.113281 101.65625 70.523438 101.65625 72.117188 C 101.65625 75.023438 99.292969 77.382812 96.382812 77.382812 C 93.472656 77.382812 91.109375 75.023438 91.109375 72.117188 C 91.109375 70.125 92.222656 68.382812 93.871094 67.5 L 92.554688 64.179688 C 92.257812 64.246094 91.941406 64.277344 91.625 64.277344 C 89.3125 64.277344 87.449219 62.402344 87.449219 60.109375 C 87.449219 57.800781 89.328125 55.921875 91.625 55.921875 C 92.007812 55.921875 92.390625 55.972656 92.738281 56.074219 L 95.449219 50.058594 C 94.785156 49.542969 94.351562 48.746094 94.351562 47.851562 C 94.351562 46.304688 95.601562 45.058594 97.148438 45.058594 C 97.828125 45.058594 98.445312 45.292969 98.929688 45.707031 L 103.785156 42.019531 C 103.4375 41.390625 103.234375 40.640625 103.234375 39.859375 C 103.234375 38.566406 103.800781 37.386719 104.683594 36.574219 L 101.6875 32.171875 C 101.125 32.4375 100.492188 32.585938 99.824219 32.585938 C 98.261719 32.585938 96.898438 31.753906 96.148438 30.527344 L 91.589844 32.4375 C 91.589844 32.503906 91.609375 32.570312 91.609375 32.617188 C 91.609375 33.664062 90.84375 34.527344 89.84375 34.695312 L 89.230469 39.113281 C 90.761719 39.59375 91.859375 41.023438 91.859375 42.703125 C 91.859375 44.777344 90.160156 46.472656 88.082031 46.472656 C 86.683594 46.472656 85.46875 45.707031 84.804688 44.578125 L 79.398438 46.570312 C 79.398438 46.589844 79.398438 46.605469 79.398438 46.636719 C 79.398438 47.75 78.5 48.648438 77.386719 48.648438 C 77.269531 48.648438 77.136719 48.632812 77.019531 48.613281 L 74.273438 53.597656 C 74.605469 53.898438 74.890625 54.261719 75.074219 54.675781 L 82.660156 53.082031 C 82.773438 52.085938 83.625 51.304688 84.65625 51.304688 C 85.769531 51.304688 86.667969 52.203125 86.667969 53.316406 C 86.667969 54.34375 85.886719 55.191406 84.886719 55.308594 L 82.660156 65.9375 C 85.019531 66.703125 86.71875 68.914062 86.71875 71.519531 C 86.71875 74.757812 84.089844 77.398438 80.828125 77.398438 C 80.730469 77.398438 80.628906 77.398438 80.53125 77.398438 L 79.648438 82.847656 C 80.445312 83.214844 81.011719 84.027344 81.011719 84.972656 C 81.011719 86.039062 80.3125 86.917969 79.347656 87.21875 L 79.429688 91.335938 C 80.046875 91.570312 80.496094 92.183594 80.496094 92.882812 C 80.496094 93.792969 79.746094 94.542969 78.832031 94.542969 C 77.917969 94.542969 77.167969 93.792969 77.167969 92.882812 C 77.167969 92.714844 77.203125 92.546875 77.253906 92.382812 L 74.339844 89.957031 C 73.976562 90.207031 73.527344 90.355469 73.027344 90.355469 C 71.746094 90.355469 70.714844 89.328125 70.714844 88.046875 C 70.714844 87.132812 71.246094 86.351562 72.011719 85.972656 L 71.511719 83.214844 C 71.480469 83.214844 71.429688 83.214844 71.398438 83.214844 C 69.066406 83.214844 67.171875 81.320312 67.171875 78.996094 C 67.171875 76.667969 69.066406 74.777344 71.398438 74.777344 C 72.511719 74.777344 73.507812 75.207031 74.257812 75.90625 L 75.871094 74.625 C 75.289062 73.710938 74.957031 72.648438 74.957031 71.488281 C 74.957031 70.375 75.273438 69.328125 75.820312 68.429688 L 71.695312 65.273438 C 71.378906 65.492188 70.996094 65.625 70.582031 65.625 C 70.132812 65.625 69.714844 65.472656 69.382812 65.226562 L 66.773438 67.035156 C 67.238281 67.882812 67.488281 68.847656 67.488281 69.875 C 67.488281 73.164062 64.824219 75.820312 61.53125 75.820312 C 58.738281 75.820312 56.410156 73.910156 55.757812 71.320312 L 51.300781 71.933594 C 51.25 74.046875 49.523438 75.738281 47.390625 75.738281 C 45.230469 75.738281 43.484375 73.996094 43.484375 71.835938 C 43.484375 69.675781 45.230469 67.933594 47.390625 67.933594 C 47.792969 67.933594 48.175781 68 48.523438 68.097656 L 53.28125 58.480469 C 52.066406 57.667969 51.234375 56.339844 51.085938 54.808594 L 47.160156 54.675781 C 46.875 55.410156 46.179688 55.921875 45.347656 55.921875 C 45.128906 55.921875 44.929688 55.890625 44.730469 55.824219 L 41.585938 59.894531 C 42.566406 60.855469 43.167969 62.183594 43.167969 63.664062 C 43.167969 66.585938 40.789062 68.960938 37.859375 68.960938 C 35.398438 68.960938 33.320312 67.269531 32.71875 64.992188 L 29.078125 65.472656 C 29.011719 67.550781 27.296875 69.226562 25.199219 69.226562 C 23.054688 69.226562 21.324219 67.5 21.324219 65.359375 C 21.324219 63.332031 22.890625 61.671875 24.886719 61.503906 L 25.234375 57.253906 C 24.535156 56.953125 24.054688 56.253906 24.054688 55.441406 C 24.054688 54.363281 24.933594 53.464844 26.03125 53.464844 C 26.28125 53.464844 26.5 53.515625 26.714844 53.582031 L 34.152344 44.445312 C 33.96875 44.148438 33.851562 43.78125 33.851562 43.398438 C 33.851562 42.867188 34.066406 42.386719 34.398438 42.035156 L 33.253906 39.8125 C 32.671875 40.027344 32.054688 40.144531 31.40625 40.144531 C 30.472656 40.144531 29.59375 39.894531 28.84375 39.480469 L 24.371094 45.675781 C 24.835938 46.191406 25.117188 46.886719 25.117188 47.652344 C 25.117188 49.277344 23.785156 50.609375 22.15625 50.609375 C 21.824219 50.609375 21.492188 50.558594 21.191406 50.441406 L 16.515625 58.050781 C 17.582031 58.914062 18.246094 60.226562 18.246094 61.703125 C 18.246094 64.3125 16.136719 66.421875 13.523438 66.421875 C 10.910156 66.421875 8.800781 64.3125 8.800781 61.703125 C 8.800781 59.578125 10.210938 57.785156 12.140625 57.1875 L 11.777344 54.941406 C 11.742188 54.941406 11.726562 54.941406 11.691406 54.941406 C 9.265625 54.941406 7.300781 52.984375 7.300781 50.558594 C 7.300781 48.148438 9.246094 46.191406 11.660156 46.171875 L 11.925781 44.230469 C 9.113281 43.546875 7.019531 41.007812 7.019531 37.984375 C 7.019531 34.445312 9.898438 31.574219 13.441406 31.574219 C 16.382812 31.574219 18.878906 33.550781 19.628906 36.257812 L 26.097656 35.109375 C 26.097656 35.011719 26.097656 34.929688 26.097656 34.828125 C 26.097656 33.929688 26.332031 33.085938 26.714844 32.335938 L 21.941406 29 C 21.410156 29.496094 20.691406 29.796875 19.910156 29.796875 C 18.265625 29.796875 16.917969 28.449219 16.917969 26.804688 C 16.917969 25.160156 18.265625 23.816406 19.910156 23.816406 C 21.558594 23.816406 22.90625 25.160156 22.90625 26.804688 C 22.90625 27.222656 22.820312 27.601562 22.671875 27.953125 L 27.445312 31.289062 C 28.128906 30.527344 29.042969 29.960938 30.058594 29.695312 L 30.042969 24.863281 C 28.246094 24.5625 26.882812 23.019531 26.882812 21.140625 C 26.882812 19.066406 28.578125 17.371094 30.65625 17.371094 C 31.886719 17.371094 32.96875 17.953125 33.652344 18.847656 L 39.691406 15.691406 C 39.539062 15.246094 39.457031 14.78125 39.457031 14.28125 C 39.457031 11.90625 41.386719 9.960938 43.78125 9.960938 C 46.160156 9.960938 48.109375 11.890625 48.109375 14.28125 C 48.109375 15.859375 47.257812 17.253906 45.976562 18.003906 L 47.972656 22.917969 C 48.289062 22.851562 48.605469 22.800781 48.957031 22.800781 C 49.738281 22.800781 50.488281 23.019531 51.117188 23.402344 L 55.644531 17.917969 C 54.613281 16.855469 53.964844 15.410156 53.964844 13.816406 C 53.964844 10.578125 56.589844 7.9375 59.851562 7.9375 C 63.097656 7.9375 65.742188 10.5625 65.742188 13.816406 C 65.742188 15.261719 65.207031 16.589844 64.34375 17.601562 L 68.835938 22.320312 C 69.101562 22.1875 69.402344 22.121094 69.714844 22.121094 C 69.800781 22.121094 69.882812 22.121094 69.949219 22.136719 L 72.34375 16.972656 C 71.363281 16.292969 70.714844 15.160156 70.714844 13.867188 C 70.714844 11.789062 72.410156 10.09375 74.492188 10.09375 C 76.570312 10.09375 78.265625 11.789062 78.265625 13.867188 C 78.265625 14.332031 78.183594 14.78125 78.035156 15.179688 L 81.84375 17.386719 C 82.792969 16.140625 84.304688 15.328125 85.984375 15.328125 C 88.863281 15.328125 91.191406 17.652344 91.191406 20.527344 C 91.191406 21.222656 91.058594 21.890625 90.808594 22.488281 L 96.433594 25.625 C 97.214844 24.613281 98.445312 23.949219 99.84375 23.949219 C 102.222656 23.949219 104.152344 25.875 104.152344 28.25 C 104.152344 29.496094 103.617188 30.625 102.769531 31.40625 L 105.765625 35.808594 C 106.347656 35.527344 107.011719 35.359375 107.710938 35.359375 C 110.171875 35.359375 112.167969 37.351562 112.167969 39.8125 C 112.167969 42.269531 110.171875 44.261719 107.710938 44.261719 C 106.496094 44.261719 105.382812 43.78125 104.582031 42.984375 L 99.726562 46.671875 C 99.875 47.019531 99.960938 47.402344 99.960938 47.800781 C 99.960938 49.34375 98.710938 50.589844 97.164062 50.589844 C 96.980469 50.589844 96.796875 50.574219 96.632812 50.542969 L 93.921875 56.554688 C 95.070312 57.300781 95.832031 58.597656 95.832031 60.058594 C 95.832031 61.585938 95 62.933594 93.769531 63.664062 L 95.085938 66.984375 C 95.519531 66.871094 95.949219 66.820312 96.414062 66.820312 C 97.28125 66.820312 98.113281 67.035156 98.828125 67.402344 L 103.484375 60.558594 C 102.070312 59.378906 101.171875 57.601562 101.171875 55.609375 Z M 31.339844 29.5625 L 31.324219 24.878906 C 33.101562 24.578125 34.449219 23.019531 34.449219 21.15625 C 34.449219 20.757812 34.382812 20.359375 34.265625 19.996094 L 40.304688 16.839844 C 41.085938 17.917969 42.367188 18.617188 43.800781 18.617188 C 44.148438 18.617188 44.480469 18.582031 44.8125 18.5 L 46.808594 23.417969 C 45.578125 24.148438 44.746094 25.492188 44.746094 27.039062 C 44.746094 28.898438 45.960938 30.476562 47.640625 31.042969 L 46.742188 36.355469 C 46.628906 36.355469 46.511719 36.339844 46.378906 36.339844 C 43.082031 36.339844 40.421875 38.996094 40.421875 42.285156 C 40.421875 45.574219 43.082031 48.234375 46.378906 48.234375 C 49.503906 48.234375 52.066406 45.824219 52.316406 42.769531 L 55.757812 42.667969 C 56.042969 43.414062 56.757812 43.949219 57.605469 43.949219 C 58.207031 43.949219 58.738281 43.679688 59.101562 43.25 L 63.613281 45.042969 C 63.5625 45.308594 63.527344 45.574219 63.527344 45.839844 C 63.527344 47.933594 65.242188 49.644531 67.335938 49.644531 C 69.433594 49.644531 71.148438 47.933594 71.148438 45.839844 C 71.148438 44.925781 70.816406 44.082031 70.28125 43.414062 L 75.054688 37.902344 C 75.886719 38.449219 76.886719 38.78125 77.949219 38.78125 C 80.828125 38.78125 83.15625 36.457031 83.15625 33.582031 C 83.15625 30.707031 80.828125 28.382812 77.949219 28.382812 C 76.871094 28.382812 75.855469 28.714844 75.023438 29.28125 L 71.464844 25.210938 C 71.644531 24.910156 71.746094 24.546875 71.746094 24.164062 C 71.746094 23.582031 71.496094 23.050781 71.097656 22.667969 L 73.476562 17.503906 C 73.792969 17.585938 74.125 17.636719 74.457031 17.636719 C 75.621094 17.636719 76.671875 17.105469 77.351562 16.273438 L 81.160156 18.484375 C 80.894531 19.113281 80.746094 19.796875 80.746094 20.527344 C 80.746094 23.402344 83.074219 25.726562 85.953125 25.726562 C 86.234375 25.726562 86.519531 25.710938 86.785156 25.660156 L 88.28125 30.824219 C 87.714844 31.207031 87.351562 31.839844 87.351562 32.570312 C 87.351562 33.417969 87.847656 34.128906 88.546875 34.480469 L 87.933594 38.898438 C 85.902344 38.964844 84.273438 40.625 84.273438 42.667969 C 84.273438 42.902344 84.289062 43.132812 84.339844 43.367188 L 78.933594 45.359375 C 78.566406 44.894531 78 44.613281 77.367188 44.613281 C 76.253906 44.613281 75.355469 45.507812 75.355469 46.621094 C 75.355469 47.152344 75.554688 47.617188 75.886719 47.984375 L 73.144531 52.964844 C 72.859375 52.882812 72.5625 52.832031 72.261719 52.832031 C 70.566406 52.832031 69.199219 54.195312 69.199219 55.890625 C 69.199219 57.585938 70.566406 58.945312 72.261719 58.945312 C 73.957031 58.945312 75.324219 57.585938 75.324219 55.890625 L 82.910156 54.277344 C 83.089844 54.578125 83.324219 54.828125 83.625 54.992188 L 81.394531 65.625 C 81.210938 65.605469 81.011719 65.589844 80.8125 65.589844 C 79.148438 65.589844 77.636719 66.289062 76.554688 67.402344 L 72.429688 64.246094 C 72.496094 64.046875 72.542969 63.8125 72.542969 63.597656 C 72.542969 62.484375 71.644531 61.585938 70.53125 61.585938 C 69.417969 61.585938 68.519531 62.484375 68.519531 63.597656 C 68.519531 63.796875 68.550781 63.980469 68.601562 64.160156 L 65.992188 65.972656 C 64.890625 64.710938 63.277344 63.914062 61.480469 63.914062 C 58.1875 63.914062 55.527344 66.570312 55.527344 69.859375 C 55.527344 69.925781 55.527344 69.992188 55.527344 70.042969 L 51.070312 70.65625 C 50.820312 69.84375 50.285156 69.128906 49.605469 68.648438 L 54.363281 59.03125 C 54.863281 59.195312 55.410156 59.296875 55.976562 59.296875 C 58.722656 59.296875 60.949219 57.070312 60.949219 54.328125 C 60.949219 51.589844 58.722656 49.378906 55.976562 49.378906 C 53.515625 49.378906 51.46875 51.171875 51.070312 53.53125 L 47.144531 53.398438 C 46.894531 52.601562 46.160156 52.035156 45.296875 52.035156 C 44.230469 52.035156 43.351562 52.898438 43.351562 53.980469 C 43.351562 54.378906 43.464844 54.726562 43.667969 55.042969 L 40.523438 59.113281 C 39.722656 58.628906 38.792969 58.363281 37.808594 58.363281 C 34.882812 58.363281 32.503906 60.738281 32.503906 63.664062 C 32.503906 63.679688 32.503906 63.714844 32.503906 63.730469 L 28.859375 64.210938 C 28.460938 62.933594 27.414062 61.917969 26.097656 61.585938 L 26.449219 57.335938 C 27.3125 57.121094 27.945312 56.339844 27.945312 55.425781 C 27.945312 55.042969 27.828125 54.675781 27.644531 54.378906 L 35.082031 45.242188 C 35.296875 45.324219 35.53125 45.359375 35.765625 45.359375 C 36.863281 45.359375 37.742188 44.480469 37.742188 43.382812 C 37.742188 42.304688 36.863281 41.40625 35.765625 41.40625 C 35.664062 41.40625 35.566406 41.40625 35.480469 41.421875 L 34.332031 39.195312 C 35.730469 38.25 36.664062 36.640625 36.664062 34.8125 C 36.664062 31.886719 34.285156 29.511719 31.355469 29.511719 C 31.324219 29.511719 31.304688 29.511719 31.289062 29.511719 Z M 47.992188 36.574219 L 48.890625 31.257812 C 48.90625 31.257812 48.9375 31.257812 48.957031 31.257812 C 50.488281 31.257812 51.816406 30.441406 52.566406 29.230469 L 58.722656 31.773438 C 58.636719 32.121094 58.585938 32.46875 58.585938 32.851562 C 58.585938 35.277344 60.550781 37.238281 62.980469 37.238281 C 65.40625 37.238281 67.371094 35.277344 67.371094 32.851562 C 67.371094 31.671875 66.90625 30.609375 66.15625 29.8125 L 69.035156 26.109375 C 69.25 26.191406 69.484375 26.222656 69.714844 26.222656 C 70 26.222656 70.265625 26.175781 70.515625 26.058594 L 74.074219 30.128906 C 73.242188 31.042969 72.746094 32.269531 72.746094 33.597656 C 72.746094 34.945312 73.261719 36.15625 74.089844 37.085938 L 69.316406 42.601562 C 68.734375 42.253906 68.070312 42.054688 67.335938 42.054688 C 65.957031 42.054688 64.757812 42.785156 64.078125 43.878906 L 59.570312 42.085938 C 59.570312 42.054688 59.570312 42.019531 59.570312 41.988281 C 59.570312 40.890625 58.6875 40.011719 57.589844 40.011719 C 56.707031 40.011719 55.960938 40.59375 55.710938 41.40625 L 52.265625 41.503906 C 51.949219 39.128906 50.238281 37.21875 47.972656 36.574219 Z M 63.410156 18.5 L 67.902344 23.21875 C 67.753906 23.5 67.652344 23.832031 67.652344 24.179688 C 67.652344 24.597656 67.785156 24.996094 68.003906 25.328125 L 65.125 29.03125 C 64.492188 28.664062 63.746094 28.464844 62.960938 28.464844 C 61.367188 28.464844 59.96875 29.332031 59.203125 30.59375 L 53.046875 28.035156 C 53.132812 27.71875 53.164062 27.371094 53.164062 27.019531 C 53.164062 25.941406 52.75 24.960938 52.082031 24.214844 L 56.609375 18.734375 C 57.539062 19.347656 58.636719 19.695312 59.835938 19.695312 C 61.183594 19.695312 62.414062 19.246094 63.410156 18.484375 Z M 89.511719 30.507812 L 88.015625 25.328125 C 88.878906 24.960938 89.613281 24.363281 90.160156 23.617188 L 95.785156 26.753906 C 95.601562 27.222656 95.5 27.734375 95.5 28.265625 C 95.5 28.632812 95.550781 28.980469 95.632812 29.332031 L 91.074219 31.242188 C 90.695312 30.792969 90.144531 30.507812 89.511719 30.492188 Z M 79.296875 77.167969 L 78.417969 82.617188 C 77.253906 82.75 76.335938 83.746094 76.335938 84.941406 C 76.335938 86.039062 77.085938 86.949219 78.101562 87.21875 L 78.183594 91.335938 C 78.152344 91.351562 78.101562 91.371094 78.066406 91.386719 L 75.15625 88.960938 C 75.289062 88.679688 75.355469 88.363281 75.355469 88.03125 C 75.355469 86.835938 74.441406 85.855469 73.277344 85.738281 L 72.777344 82.980469 C 74.441406 82.417969 75.640625 80.839844 75.640625 78.996094 C 75.640625 78.230469 75.4375 77.515625 75.074219 76.902344 L 76.6875 75.621094 C 77.402344 76.335938 78.300781 76.886719 79.316406 77.152344 Z M 27.8125 38.75 L 23.339844 44.945312 C 22.972656 44.792969 22.574219 44.695312 22.15625 44.695312 C 20.527344 44.695312 19.195312 46.023438 19.195312 47.652344 C 19.195312 48.480469 19.546875 49.246094 20.109375 49.777344 L 15.4375 57.386719 C 14.855469 57.121094 14.207031 56.984375 13.523438 56.984375 C 13.472656 56.984375 13.441406 56.984375 13.390625 56.984375 L 13.023438 54.742188 C 14.804688 54.179688 16.085938 52.519531 16.085938 50.574219 C 16.085938 48.582031 14.753906 46.902344 12.925781 46.371094 L 13.191406 44.429688 C 13.273438 44.429688 13.355469 44.429688 13.457031 44.429688 C 17 44.429688 19.878906 41.554688 19.878906 38.015625 C 19.878906 37.851562 19.878906 37.703125 19.859375 37.535156 L 26.332031 36.40625 C 26.613281 37.320312 27.128906 38.132812 27.8125 38.765625 Z M 32.671875 51.671875 C 32.671875 49.59375 34.367188 47.902344 36.445312 47.902344 C 38.527344 47.902344 40.222656 49.59375 40.222656 51.671875 C 40.222656 53.746094 38.527344 55.441406 36.445312 55.441406 C 34.367188 55.441406 32.671875 53.746094 32.671875 51.671875 Z M 36.710938 26.375 C 36.710938 25.277344 37.59375 24.398438 38.691406 24.398438 C 39.789062 24.398438 40.671875 25.277344 40.671875 26.375 C 40.671875 27.453125 39.789062 28.351562 38.691406 28.351562 C 37.609375 28.351562 36.710938 27.46875 36.710938 26.375 Z M 36.710938 26.375 " clip-rule="evenodd"/></clipPath><linearGradient x1="39.985145" gradientTransform="matrix(1.66351, 0, 0, 1.66102, 7.035552, 7.952968)" y1="-0.154476" x2="39.673595" gradientUnits="userSpaceOnUse" y2="52.36534" id="72456a84c5"><stop stop-opacity="1" stop-color="rgb(100%, 100%, 100%)" offset="0"/><stop stop-opacity="1" stop-color="rgb(99.890137%, 99.890137%, 99.890137%)" offset="0.00726688"/><stop stop-opacity="1" stop-color="rgb(99.781799%, 99.781799%, 99.781799%)" offset="0.125"/><stop stop-opacity="1" stop-color="rgb(99.641418%, 99.641418%, 99.641418%)" offset="0.140625"/><stop stop-opacity="1" stop-color="rgb(99.362183%, 99.362183%, 99.362183%)" offset="0.15625"/><stop stop-opacity="1" stop-color="rgb(99.082947%, 99.082947%, 99.082947%)" offset="0.171875"/><stop stop-opacity="1" stop-color="rgb(98.803711%, 98.803711%, 98.803711%)" offset="0.1875"/><stop stop-opacity="1" stop-color="rgb(98.526001%, 98.526001%, 98.526001%)" offset="0.203125"/><stop stop-opacity="1" stop-color="rgb(98.246765%, 98.246765%, 98.246765%)" offset="0.21875"/><stop stop-opacity="1" stop-color="rgb(97.967529%, 97.967529%, 97.967529%)" offset="0.234375"/><stop stop-opacity="1" stop-color="rgb(97.688293%, 97.688293%, 97.688293%)" offset="0.25"/><stop stop-opacity="1" stop-color="rgb(97.409058%, 97.409058%, 97.409058%)" offset="0.265625"/><stop stop-opacity="1" stop-color="rgb(97.131348%, 97.131348%, 97.131348%)" offset="0.28125"/><stop stop-opacity="1" stop-color="rgb(96.852112%, 96.852112%, 96.852112%)" offset="0.296875"/><stop stop-opacity="1" stop-color="rgb(96.572876%, 96.572876%, 96.572876%)" offset="0.3125"/><stop stop-opacity="1" stop-color="rgb(96.29364%, 96.29364%, 96.29364%)" offset="0.328125"/><stop stop-opacity="1" stop-color="rgb(96.014404%, 96.014404%, 96.014404%)" offset="0.34375"/><stop stop-opacity="1" stop-color="rgb(95.735168%, 95.735168%, 95.735168%)" offset="0.359375"/><stop stop-opacity="1" stop-color="rgb(95.457458%, 95.457458%, 95.457458%)" offset="0.375"/><stop stop-opacity="1" stop-color="rgb(95.178223%, 95.178223%, 95.178223%)" offset="0.390625"/><stop stop-opacity="1" stop-color="rgb(94.898987%, 94.898987%, 94.898987%)" offset="0.40625"/><stop stop-opacity="1" stop-color="rgb(94.619751%, 94.619751%, 94.619751%)" offset="0.421875"/><stop stop-opacity="1" stop-color="rgb(94.340515%, 94.340515%, 94.340515%)" offset="0.4375"/><stop stop-opacity="1" stop-color="rgb(94.061279%, 94.061279%, 94.061279%)" offset="0.453125"/><stop stop-opacity="1" stop-color="rgb(93.783569%, 93.783569%, 93.783569%)" offset="0.46875"/><stop stop-opacity="1" stop-color="rgb(93.504333%, 93.504333%, 93.504333%)" offset="0.484375"/><stop stop-opacity="1" stop-color="rgb(93.225098%, 93.225098%, 93.225098%)" offset="0.5"/><stop stop-opacity="1" stop-color="rgb(92.945862%, 92.945862%, 92.945862%)" offset="0.515625"/><stop stop-opacity="1" stop-color="rgb(92.666626%, 92.666626%, 92.666626%)" offset="0.53125"/><stop stop-opacity="1" stop-color="rgb(92.388916%, 92.388916%, 92.388916%)" offset="0.546875"/><stop stop-opacity="1" stop-color="rgb(92.10968%, 92.10968%, 92.10968%)" offset="0.5625"/><stop stop-opacity="1" stop-color="rgb(91.830444%, 91.830444%, 91.830444%)" offset="0.578125"/><stop stop-opacity="1" stop-color="rgb(91.551208%, 91.551208%, 91.551208%)" offset="0.59375"/><stop stop-opacity="1" stop-color="rgb(91.271973%, 91.271973%, 91.271973%)" offset="0.609375"/><stop stop-opacity="1" stop-color="rgb(90.992737%, 90.992737%, 90.992737%)" offset="0.625"/><stop stop-opacity="1" stop-color="rgb(90.715027%, 90.715027%, 90.715027%)" offset="0.640625"/><stop stop-opacity="1" stop-color="rgb(90.435791%, 90.435791%, 90.435791%)" offset="0.65625"/><stop stop-opacity="1" stop-color="rgb(90.156555%, 90.156555%, 90.156555%)" offset="0.671875"/><stop stop-opacity="1" stop-color="rgb(89.877319%, 89.877319%, 89.877319%)" offset="0.6875"/><stop stop-opacity="1" stop-color="rgb(89.598083%, 89.598083%, 89.598083%)" offset="0.703125"/><stop stop-opacity="1" stop-color="rgb(89.318848%, 89.318848%, 89.318848%)" offset="0.71875"/><stop stop-opacity="1" stop-color="rgb(89.041138%, 89.041138%, 89.041138%)" offset="0.734375"/><stop stop-opacity="1" stop-color="rgb(88.761902%, 88.761902%, 88.761902%)" offset="0.75"/><stop stop-opacity="1" stop-color="rgb(88.482666%, 88.482666%, 88.482666%)" offset="0.765625"/><stop stop-opacity="1" stop-color="rgb(88.20343%, 88.20343%, 88.20343%)" offset="0.78125"/><stop stop-opacity="1" stop-color="rgb(87.924194%, 87.924194%, 87.924194%)" offset="0.796875"/><stop stop-opacity="1" stop-color="rgb(87.644958%, 87.644958%, 87.644958%)" offset="0.8125"/><stop stop-opacity="1" stop-color="rgb(87.367249%, 87.367249%, 87.367249%)" offset="0.828125"/><stop stop-opacity="1" stop-color="rgb(87.088013%, 87.088013%, 87.088013%)" offset="0.84375"/><stop stop-opacity="1" stop-color="rgb(86.808777%, 86.808777%, 86.808777%)" offset="0.859375"/><stop stop-opacity="1" stop-color="rgb(86.529541%, 86.529541%, 86.529541%)" offset="0.875"/><stop stop-opacity="1" stop-color="rgb(86.250305%, 86.250305%, 86.250305%)" offset="0.890625"/><stop stop-opacity="1" stop-color="rgb(85.972595%, 85.972595%, 85.972595%)" offset="0.90625"/><stop stop-opacity="1" stop-color="rgb(85.693359%, 85.693359%, 85.693359%)" offset="0.921875"/><stop stop-opacity="1" stop-color="rgb(85.414124%, 85.414124%, 85.414124%)" offset="0.9375"/><stop stop-opacity="1" stop-color="rgb(85.186768%, 85.186768%, 85.186768%)" offset="0.992733"/><stop stop-opacity="1" stop-color="rgb(85.099792%, 85.099792%, 85.099792%)" offset="1"/></linearGradient></defs><g clip-path="url(#614a692250)"><g clip-path="url(#4b3f78da5d)"><path fill="url(#72456a84c5)" d="M 7.035156 7.9375 L 7.035156 94.542969 L 114.066406 94.542969 L 114.066406 7.9375 Z M 7.035156 7.9375 " fill-rule="nonzero"/></g></g><g fill="#ffffff" fill-opacity="1"><g transform="translate(122.573708, 68.220798)"><g><path d="M 12.0625 -9.890625 L 12.0625 -0.203125 C 11.6875 -0.0976562 11.101562 0 10.3125 0.09375 C 9.53125 0.195312 8.75 0.25 7.96875 0.25 C 7.195312 0.25 6.515625 0.191406 5.921875 0.078125 C 5.335938 -0.0351562 4.851562 -0.242188 4.46875 -0.546875 C 4.082031 -0.859375 3.785156 -1.28125 3.578125 -1.8125 C 3.378906 -2.351562 3.28125 -3.0625 3.28125 -3.9375 L 3.28125 -27.703125 C 3.28125 -28.410156 3.472656 -28.957031 3.859375 -29.34375 C 4.242188 -29.726562 4.773438 -30.039062 5.453125 -30.28125 C 6.597656 -30.6875 7.925781 -30.976562 9.4375 -31.15625 C 10.945312 -31.34375 12.5625 -31.4375 14.28125 -31.4375 C 18.925781 -31.4375 22.425781 -30.460938 24.78125 -28.515625 C 27.132812 -26.566406 28.3125 -23.925781 28.3125 -20.59375 C 28.3125 -18.507812 27.769531 -16.722656 26.6875 -15.234375 C 25.613281 -13.753906 24.335938 -12.613281 22.859375 -11.8125 C 24.066406 -10.164062 25.257812 -8.617188 26.4375 -7.171875 C 27.625 -5.722656 28.550781 -4.410156 29.21875 -3.234375 C 28.882812 -2.054688 28.269531 -1.15625 27.375 -0.53125 C 26.488281 0.09375 25.488281 0.40625 24.375 0.40625 C 23.632812 0.40625 22.992188 0.320312 22.453125 0.15625 C 21.921875 -0.0078125 21.453125 -0.242188 21.046875 -0.546875 C 20.640625 -0.859375 20.269531 -1.234375 19.9375 -1.671875 C 19.601562 -2.109375 19.28125 -2.578125 18.96875 -3.078125 L 14.734375 -9.890625 Z M 15.234375 -16.609375 C 16.515625 -16.609375 17.523438 -16.9375 18.265625 -17.59375 C 19.003906 -18.25 19.375 -19.210938 19.375 -20.484375 C 19.375 -21.765625 18.960938 -22.734375 18.140625 -23.390625 C 17.316406 -24.046875 16.015625 -24.375 14.234375 -24.375 C 13.722656 -24.375 13.316406 -24.359375 13.015625 -24.328125 C 12.710938 -24.296875 12.378906 -24.242188 12.015625 -24.171875 L 12.015625 -16.609375 Z M 15.234375 -16.609375 "/></g></g></g><g fill="#ffffff" fill-opacity="1"><g transform="translate(155.526413, 68.220798)"><g><path d="M 28.015625 -12.265625 C 28.015625 -10.179688 27.691406 -8.320312 27.046875 -6.6875 C 26.410156 -5.050781 25.507812 -3.675781 24.34375 -2.5625 C 23.1875 -1.457031 21.800781 -0.617188 20.1875 -0.046875 C 18.570312 0.523438 16.769531 0.8125 14.78125 0.8125 C 12.800781 0.8125 11.003906 0.507812 9.390625 -0.09375 C 7.773438 -0.707031 6.382812 -1.578125 5.21875 -2.703125 C 4.0625 -3.828125 3.160156 -5.195312 2.515625 -6.8125 C 1.878906 -8.425781 1.5625 -10.242188 1.5625 -12.265625 C 1.5625 -14.242188 1.878906 -16.039062 2.515625 -17.65625 C 3.160156 -19.28125 4.0625 -20.65625 5.21875 -21.78125 C 6.382812 -22.90625 7.773438 -23.769531 9.390625 -24.375 C 11.003906 -24.976562 12.800781 -25.28125 14.78125 -25.28125 C 16.769531 -25.28125 18.570312 -24.96875 20.1875 -24.34375 C 21.800781 -23.726562 23.1875 -22.851562 24.34375 -21.71875 C 25.507812 -20.59375 26.410156 -19.222656 27.046875 -17.609375 C 27.691406 -15.992188 28.015625 -14.210938 28.015625 -12.265625 Z M 10.34375 -12.265625 C 10.34375 -10.210938 10.738281 -8.640625 11.53125 -7.546875 C 12.320312 -6.453125 13.425781 -5.90625 14.84375 -5.90625 C 16.25 -5.90625 17.332031 -6.457031 18.09375 -7.5625 C 18.851562 -8.675781 19.234375 -10.242188 19.234375 -12.265625 C 19.234375 -14.285156 18.84375 -15.84375 18.0625 -16.9375 C 17.289062 -18.03125 16.195312 -18.578125 14.78125 -18.578125 C 13.375 -18.578125 12.28125 -18.03125 11.5 -16.9375 C 10.726562 -15.84375 10.34375 -14.285156 10.34375 -12.265625 Z M 10.34375 -12.265625 "/></g></g></g><g fill="#ffffff" fill-opacity="1"><g transform="translate(187.318472, 68.220798)"><g><path d="M 14.390625 -25.28125 C 15.765625 -25.28125 17.113281 -25.085938 18.4375 -24.703125 C 19.769531 -24.316406 20.925781 -23.738281 21.90625 -22.96875 C 22.914062 -23.632812 24.050781 -24.1875 25.3125 -24.625 C 26.570312 -25.0625 28.09375 -25.28125 29.875 -25.28125 C 31.15625 -25.28125 32.410156 -25.113281 33.640625 -24.78125 C 34.867188 -24.445312 35.960938 -23.914062 36.921875 -23.1875 C 37.878906 -22.46875 38.644531 -21.507812 39.21875 -20.3125 C 39.789062 -19.113281 40.078125 -17.660156 40.078125 -15.953125 L 40.078125 -0.046875 C 39.734375 0.046875 39.195312 0.144531 38.46875 0.25 C 37.75 0.351562 37.003906 0.40625 36.234375 0.40625 C 35.492188 0.40625 34.828125 0.351562 34.234375 0.25 C 33.648438 0.144531 33.15625 -0.0546875 32.75 -0.359375 C 32.351562 -0.660156 32.046875 -1.070312 31.828125 -1.59375 C 31.609375 -2.113281 31.5 -2.796875 31.5 -3.640625 L 31.5 -15.703125 C 31.5 -16.703125 31.210938 -17.429688 30.640625 -17.890625 C 30.066406 -18.347656 29.289062 -18.578125 28.3125 -18.578125 C 27.84375 -18.578125 27.335938 -18.46875 26.796875 -18.25 C 26.253906 -18.03125 25.851562 -17.800781 25.59375 -17.5625 C 25.625 -17.425781 25.640625 -17.300781 25.640625 -17.1875 C 25.640625 -17.070312 25.640625 -16.960938 25.640625 -16.859375 L 25.640625 -0.046875 C 25.265625 0.046875 24.710938 0.144531 23.984375 0.25 C 23.265625 0.351562 22.535156 0.40625 21.796875 0.40625 C 21.054688 0.40625 20.390625 0.351562 19.796875 0.25 C 19.210938 0.144531 18.71875 -0.0546875 18.3125 -0.359375 C 17.914062 -0.660156 17.609375 -1.070312 17.390625 -1.59375 C 17.171875 -2.113281 17.0625 -2.796875 17.0625 -3.640625 L 17.0625 -15.703125 C 17.0625 -16.703125 16.75 -17.429688 16.125 -17.890625 C 15.5 -18.347656 14.75 -18.578125 13.875 -18.578125 C 13.269531 -18.578125 12.75 -18.484375 12.3125 -18.296875 C 11.875 -18.109375 11.503906 -17.929688 11.203125 -17.765625 L 11.203125 -0.046875 C 10.867188 0.046875 10.335938 0.144531 9.609375 0.25 C 8.890625 0.351562 8.144531 0.40625 7.375 0.40625 C 6.632812 0.40625 5.96875 0.351562 5.375 0.25 C 4.78125 0.144531 4.28125 -0.0546875 3.875 -0.359375 C 3.476562 -0.660156 3.171875 -1.070312 2.953125 -1.59375 C 2.734375 -2.113281 2.625 -2.796875 2.625 -3.640625 L 2.625 -18.875 C 2.625 -19.78125 2.816406 -20.503906 3.203125 -21.046875 C 3.585938 -21.585938 4.117188 -22.09375 4.796875 -22.5625 C 5.941406 -23.363281 7.363281 -24.015625 9.0625 -24.515625 C 10.757812 -25.023438 12.535156 -25.28125 14.390625 -25.28125 Z M 14.390625 -25.28125 "/></g></g></g><g fill="#ffffff" fill-opacity="1"><g transform="translate(232.23086, 68.220798)"><g><path d="M 15.59375 0.8125 C 13.601562 0.8125 11.757812 0.535156 10.0625 -0.015625 C 8.363281 -0.578125 6.882812 -1.410156 5.625 -2.515625 C 4.363281 -3.628906 3.367188 -5.023438 2.640625 -6.703125 C 1.921875 -8.390625 1.5625 -10.359375 1.5625 -12.609375 C 1.5625 -14.835938 1.921875 -16.75 2.640625 -18.34375 C 3.367188 -19.945312 4.320312 -21.257812 5.5 -22.28125 C 6.675781 -23.3125 8.019531 -24.066406 9.53125 -24.546875 C 11.050781 -25.035156 12.601562 -25.28125 14.1875 -25.28125 C 15.96875 -25.28125 17.585938 -25.007812 19.046875 -24.46875 C 20.515625 -23.9375 21.773438 -23.195312 22.828125 -22.25 C 23.890625 -21.3125 24.710938 -20.1875 25.296875 -18.875 C 25.890625 -17.5625 26.1875 -16.128906 26.1875 -14.578125 C 26.1875 -13.441406 25.867188 -12.566406 25.234375 -11.953125 C 24.597656 -11.347656 23.707031 -10.960938 22.5625 -10.796875 L 10.09375 -8.9375 C 10.46875 -7.820312 11.222656 -6.988281 12.359375 -6.4375 C 13.503906 -5.882812 14.816406 -5.609375 16.296875 -5.609375 C 17.679688 -5.609375 18.988281 -5.78125 20.21875 -6.125 C 21.445312 -6.476562 22.445312 -6.894531 23.21875 -7.375 C 23.75 -7.03125 24.203125 -6.554688 24.578125 -5.953125 C 24.953125 -5.347656 25.140625 -4.707031 25.140625 -4.03125 C 25.140625 -2.519531 24.429688 -1.394531 23.015625 -0.65625 C 21.941406 -0.0820312 20.726562 0.300781 19.375 0.5 C 18.03125 0.707031 16.769531 0.8125 15.59375 0.8125 Z M 14.1875 -19.03125 C 13.375 -19.03125 12.671875 -18.894531 12.078125 -18.625 C 11.492188 -18.351562 11.015625 -18.003906 10.640625 -17.578125 C 10.273438 -17.160156 10 -16.691406 9.8125 -16.171875 C 9.625 -15.648438 9.515625 -15.117188 9.484375 -14.578125 L 18.125 -16 C 18.019531 -16.675781 17.644531 -17.347656 17 -18.015625 C 16.363281 -18.691406 15.425781 -19.03125 14.1875 -19.03125 Z M 14.1875 -19.03125 "/></g></g></g><g fill="#ffffff" fill-opacity="1"><g transform="translate(262.155792, 68.220798)"><g><path d="M 28.015625 -12.265625 C 28.015625 -10.179688 27.691406 -8.320312 27.046875 -6.6875 C 26.410156 -5.050781 25.507812 -3.675781 24.34375 -2.5625 C 23.1875 -1.457031 21.800781 -0.617188 20.1875 -0.046875 C 18.570312 0.523438 16.769531 0.8125 14.78125 0.8125 C 12.800781 0.8125 11.003906 0.507812 9.390625 -0.09375 C 7.773438 -0.707031 6.382812 -1.578125 5.21875 -2.703125 C 4.0625 -3.828125 3.160156 -5.195312 2.515625 -6.8125 C 1.878906 -8.425781 1.5625 -10.242188 1.5625 -12.265625 C 1.5625 -14.242188 1.878906 -16.039062 2.515625 -17.65625 C 3.160156 -19.28125 4.0625 -20.65625 5.21875 -21.78125 C 6.382812 -22.90625 7.773438 -23.769531 9.390625 -24.375 C 11.003906 -24.976562 12.800781 -25.28125 14.78125 -25.28125 C 16.769531 -25.28125 18.570312 -24.96875 20.1875 -24.34375 C 21.800781 -23.726562 23.1875 -22.851562 24.34375 -21.71875 C 25.507812 -20.59375 26.410156 -19.222656 27.046875 -17.609375 C 27.691406 -15.992188 28.015625 -14.210938 28.015625 -12.265625 Z M 10.34375 -12.265625 C 10.34375 -10.210938 10.738281 -8.640625 11.53125 -7.546875 C 12.320312 -6.453125 13.425781 -5.90625 14.84375 -5.90625 C 16.25 -5.90625 17.332031 -6.457031 18.09375 -7.5625 C 18.851562 -8.675781 19.234375 -10.242188 19.234375 -12.265625 C 19.234375 -14.285156 18.84375 -15.84375 18.0625 -16.9375 C 17.289062 -18.03125 16.195312 -18.578125 14.78125 -18.578125 C 13.375 -18.578125 12.28125 -18.03125 11.5 -16.9375 C 10.726562 -15.84375 10.34375 -14.285156 10.34375 -12.265625 Z M 10.34375 -12.265625 "/></g></g></g><g fill="#ffffff" fill-opacity="1"><g transform="translate(293.947852, 68.220798)"><g><path d="M 1.109375 -4.09375 C 1.109375 -5.5 1.546875 -6.671875 2.421875 -7.609375 C 3.296875 -8.554688 4.488281 -9.03125 6 -9.03125 C 7.519531 -9.03125 8.71875 -8.554688 9.59375 -7.609375 C 10.46875 -6.671875 10.90625 -5.5 10.90625 -4.09375 C 10.90625 -2.675781 10.46875 -1.492188 9.59375 -0.546875 C 8.71875 0.390625 7.519531 0.859375 6 0.859375 C 4.488281 0.859375 3.296875 0.390625 2.421875 -0.546875 C 1.546875 -1.492188 1.109375 -2.675781 1.109375 -4.09375 Z M 1.109375 -4.09375 "/></g></g></g><g fill="#ffffff" fill-opacity="1"><g transform="translate(308.178849, 68.220798)"><g><path d="M 9.796875 -29.671875 C 10.367188 -30.015625 11.234375 -30.335938 12.390625 -30.640625 C 13.546875 -30.941406 14.710938 -31.09375 15.890625 -31.09375 C 17.578125 -31.09375 19.066406 -30.847656 20.359375 -30.359375 C 21.660156 -29.867188 22.492188 -29.101562 22.859375 -28.0625 C 23.460938 -26.3125 24.117188 -24.273438 24.828125 -21.953125 C 25.535156 -19.628906 26.242188 -17.226562 26.953125 -14.75 C 27.660156 -12.28125 28.347656 -9.84375 29.015625 -7.4375 C 29.691406 -5.03125 30.28125 -2.90625 30.78125 -1.0625 C 30.382812 -0.59375 29.78125 -0.21875 28.96875 0.0625 C 28.15625 0.351562 27.195312 0.5 26.09375 0.5 C 25.28125 0.5 24.597656 0.429688 24.046875 0.296875 C 23.492188 0.160156 23.039062 -0.0351562 22.6875 -0.296875 C 22.332031 -0.566406 22.046875 -0.921875 21.828125 -1.359375 C 21.609375 -1.796875 21.414062 -2.300781 21.25 -2.875 L 20.34375 -6.359375 L 11.203125 -6.359375 C 10.929688 -5.347656 10.660156 -4.300781 10.390625 -3.21875 C 10.128906 -2.144531 9.863281 -1.101562 9.59375 -0.09375 C 9.113281 0.0703125 8.613281 0.210938 8.09375 0.328125 C 7.570312 0.441406 6.941406 0.5 6.203125 0.5 C 4.492188 0.5 3.222656 0.207031 2.390625 -0.375 C 1.566406 -0.96875 1.15625 -1.785156 1.15625 -2.828125 C 1.15625 -3.296875 1.222656 -3.765625 1.359375 -4.234375 C 1.492188 -4.710938 1.644531 -5.269531 1.8125 -5.90625 C 2.050781 -6.8125 2.378906 -7.9375 2.796875 -9.28125 C 3.222656 -10.632812 3.6875 -12.09375 4.1875 -13.65625 C 4.695312 -15.21875 5.234375 -16.820312 5.796875 -18.46875 C 6.367188 -20.113281 6.90625 -21.664062 7.40625 -23.125 C 7.914062 -24.59375 8.378906 -25.898438 8.796875 -27.046875 C 9.222656 -28.191406 9.554688 -29.066406 9.796875 -29.671875 Z M 15.84375 -23.171875 C 15.375 -21.753906 14.84375 -20.175781 14.25 -18.4375 C 13.664062 -16.707031 13.140625 -14.953125 12.671875 -13.171875 L 18.921875 -13.171875 C 18.453125 -14.984375 17.972656 -16.753906 17.484375 -18.484375 C 16.992188 -20.222656 16.550781 -21.785156 16.15625 -23.171875 Z M 15.84375 -23.171875 "/></g></g></g><g fill="#ffffff" fill-opacity="1"><g transform="translate(342.039882, 68.220798)"><g><path d="M 12.109375 -0.203125 C 11.742188 -0.0976562 11.164062 0 10.375 0.09375 C 9.582031 0.195312 8.800781 0.25 8.03125 0.25 C 7.25 0.25 6.5625 0.191406 5.96875 0.078125 C 5.382812 -0.0351562 4.890625 -0.242188 4.484375 -0.546875 C 4.085938 -0.859375 3.785156 -1.28125 3.578125 -1.8125 C 3.378906 -2.351562 3.28125 -3.0625 3.28125 -3.9375 L 3.28125 -30.578125 C 3.644531 -30.648438 4.234375 -30.742188 5.046875 -30.859375 C 5.859375 -30.972656 6.632812 -31.03125 7.375 -31.03125 C 8.144531 -31.03125 8.820312 -30.972656 9.40625 -30.859375 C 10 -30.742188 10.492188 -30.535156 10.890625 -30.234375 C 11.296875 -29.929688 11.597656 -29.507812 11.796875 -28.96875 C 12.003906 -28.425781 12.109375 -27.71875 12.109375 -26.84375 Z M 12.109375 -0.203125 "/></g></g></g></svg>