<svg xmlns="http://www.w3.org/2000/svg" xmlns:xlink="http://www.w3.org/1999/xlink" width="500" zoomAndPan="magnify" viewBox="0 0 375 374.999991" height="500" preserveAspectRatio="xMidYMid meet" version="1.0"><defs><g/><clipPath id="c473af785a"><path d="M 15.46875 121.828125 L 131.71875 121.828125 L 131.71875 216.328125 L 15.46875 216.328125 Z M 15.46875 121.828125 " clip-rule="nonzero"/></clipPath><clipPath id="f1f8de8a86"><path d="M 117.679688 173.867188 C 117.679688 169.980469 120.824219 166.851562 124.707031 166.851562 C 128.59375 166.851562 131.71875 170 131.71875 173.867188 C 131.71875 177.753906 128.574219 180.882812 124.707031 180.882812 C 123.496094 180.882812 122.339844 180.574219 121.347656 180.03125 L 116.289062 187.480469 C 117.480469 188.527344 118.238281 190.0625 118.238281 191.800781 C 118.238281 194.964844 115.671875 197.53125 112.511719 197.53125 C 109.351562 197.53125 106.785156 194.964844 106.785156 191.800781 C 106.785156 189.628906 107.996094 187.730469 109.785156 186.773438 L 108.355469 183.160156 C 108.03125 183.230469 107.6875 183.265625 107.34375 183.265625 C 104.832031 183.265625 102.808594 181.226562 102.808594 178.730469 C 102.808594 176.21875 104.851562 174.175781 107.34375 174.175781 C 107.761719 174.175781 108.175781 174.230469 108.554688 174.335938 L 111.5 167.792969 C 110.777344 167.234375 110.308594 166.367188 110.308594 165.390625 C 110.308594 163.707031 111.664062 162.351562 113.34375 162.351562 C 114.082031 162.351562 114.753906 162.605469 115.277344 163.058594 L 120.550781 159.042969 C 120.171875 158.355469 119.957031 157.542969 119.957031 156.695312 C 119.957031 155.285156 120.570312 154 121.527344 153.113281 L 118.277344 148.324219 C 117.660156 148.613281 116.972656 148.777344 116.25 148.777344 C 114.554688 148.777344 113.070312 147.871094 112.257812 146.535156 L 107.308594 148.613281 C 107.308594 148.6875 107.328125 148.757812 107.328125 148.8125 C 107.328125 149.953125 106.496094 150.890625 105.410156 151.070312 L 104.742188 155.878906 C 106.40625 156.40625 107.597656 157.960938 107.597656 159.785156 C 107.597656 162.042969 105.753906 163.890625 103.496094 163.890625 C 101.976562 163.890625 100.660156 163.058594 99.9375 161.828125 L 94.0625 163.996094 C 94.0625 164.015625 94.0625 164.035156 94.0625 164.070312 C 94.0625 165.28125 93.089844 166.257812 91.878906 166.257812 C 91.75 166.257812 91.605469 166.238281 91.480469 166.21875 L 88.5 171.644531 C 88.859375 171.96875 89.167969 172.367188 89.367188 172.820312 L 97.605469 171.082031 C 97.730469 170 98.652344 169.148438 99.773438 169.148438 C 100.984375 169.148438 101.960938 170.125 101.960938 171.335938 C 101.960938 172.457031 101.109375 173.378906 100.027344 173.503906 L 97.605469 185.074219 C 100.171875 185.90625 102.015625 188.3125 102.015625 191.148438 C 102.015625 194.675781 99.160156 197.546875 95.617188 197.546875 C 95.507812 197.546875 95.402344 197.546875 95.292969 197.546875 L 94.335938 203.476562 C 95.203125 203.875 95.816406 204.761719 95.816406 205.792969 C 95.816406 206.949219 95.058594 207.90625 94.011719 208.230469 L 94.101562 212.714844 C 94.769531 212.96875 95.257812 213.636719 95.257812 214.394531 C 95.257812 215.390625 94.445312 216.203125 93.449219 216.203125 C 92.457031 216.203125 91.644531 215.390625 91.644531 214.394531 C 91.644531 214.214844 91.679688 214.035156 91.734375 213.855469 L 88.570312 211.214844 C 88.175781 211.484375 87.6875 211.648438 87.144531 211.648438 C 85.753906 211.648438 84.632812 210.527344 84.632812 209.136719 C 84.632812 208.140625 85.210938 207.292969 86.042969 206.875 L 85.5 203.875 C 85.464844 203.875 85.410156 203.875 85.375 203.875 C 82.84375 203.875 80.785156 201.8125 80.785156 199.285156 C 80.785156 196.753906 82.84375 194.691406 85.375 194.691406 C 86.585938 194.691406 87.667969 195.160156 88.480469 195.921875 L 90.234375 194.53125 C 89.601562 193.535156 89.238281 192.378906 89.238281 191.113281 C 89.238281 189.902344 89.582031 188.761719 90.179688 187.785156 L 85.699219 184.351562 C 85.355469 184.585938 84.941406 184.730469 84.488281 184.730469 C 84 184.730469 83.546875 184.570312 83.1875 184.296875 L 80.351562 186.269531 C 80.855469 187.191406 81.128906 188.238281 81.128906 189.359375 C 81.128906 192.9375 78.238281 195.832031 74.660156 195.832031 C 71.625 195.832031 69.09375 193.753906 68.390625 190.933594 L 63.546875 191.601562 C 63.492188 193.898438 61.613281 195.742188 59.300781 195.742188 C 56.953125 195.742188 55.054688 193.84375 55.054688 191.492188 C 55.054688 189.140625 56.953125 187.246094 59.300781 187.246094 C 59.734375 187.246094 60.152344 187.316406 60.53125 187.425781 L 65.699219 176.957031 C 64.378906 176.074219 63.476562 174.625 63.3125 172.964844 L 59.046875 172.820312 C 58.742188 173.613281 57.980469 174.175781 57.078125 174.175781 C 56.84375 174.175781 56.628906 174.136719 56.410156 174.066406 L 52.996094 178.496094 C 54.0625 179.542969 54.710938 180.988281 54.710938 182.597656 C 54.710938 185.78125 52.128906 188.363281 48.949219 188.363281 C 46.273438 188.363281 44.015625 186.519531 43.363281 184.042969 L 39.410156 184.570312 C 39.335938 186.828125 37.476562 188.65625 35.199219 188.65625 C 32.867188 188.65625 30.988281 186.773438 30.988281 184.441406 C 30.988281 182.238281 32.6875 180.429688 34.855469 180.25 L 35.234375 175.621094 C 34.476562 175.296875 33.953125 174.535156 33.953125 173.648438 C 33.953125 172.476562 34.910156 171.5 36.101562 171.5 C 36.371094 171.5 36.609375 171.554688 36.84375 171.625 L 44.917969 161.683594 C 44.71875 161.359375 44.59375 160.960938 44.59375 160.542969 C 44.59375 159.964844 44.828125 159.441406 45.191406 159.0625 L 43.941406 156.640625 C 43.3125 156.875 42.640625 157 41.9375 157 C 40.925781 157 39.96875 156.730469 39.15625 156.277344 L 34.296875 163.019531 C 34.800781 163.582031 35.109375 164.339844 35.109375 165.171875 C 35.109375 166.945312 33.664062 168.390625 31.890625 168.390625 C 31.53125 168.390625 31.167969 168.335938 30.84375 168.210938 L 25.765625 176.488281 C 26.921875 177.429688 27.644531 178.855469 27.644531 180.464844 C 27.644531 183.304688 25.351562 185.597656 22.515625 185.597656 C 19.679688 185.597656 17.382812 183.304688 17.382812 180.464844 C 17.382812 178.152344 18.917969 176.199219 21.015625 175.546875 L 20.617188 173.109375 C 20.582031 173.109375 20.5625 173.109375 20.527344 173.109375 C 17.890625 173.109375 15.757812 170.976562 15.757812 168.335938 C 15.757812 165.714844 17.871094 163.582031 20.492188 163.5625 L 20.78125 161.449219 C 17.726562 160.707031 15.449219 157.941406 15.449219 154.652344 C 15.449219 150.800781 18.574219 147.671875 22.425781 147.671875 C 25.621094 147.671875 28.332031 149.824219 29.144531 152.769531 L 36.175781 151.523438 C 36.175781 151.414062 36.175781 151.324219 36.175781 151.214844 C 36.175781 150.242188 36.425781 149.320312 36.84375 148.503906 L 31.65625 144.871094 C 31.078125 145.414062 30.300781 145.738281 29.453125 145.738281 C 27.664062 145.738281 26.199219 144.273438 26.199219 142.484375 C 26.199219 140.695312 27.664062 139.230469 29.453125 139.230469 C 31.242188 139.230469 32.703125 140.695312 32.703125 142.484375 C 32.703125 142.9375 32.613281 143.351562 32.453125 143.734375 L 37.636719 147.367188 C 38.378906 146.535156 39.371094 145.921875 40.472656 145.632812 L 40.457031 140.371094 C 38.503906 140.046875 37.023438 138.363281 37.023438 136.320312 C 37.023438 134.0625 38.867188 132.21875 41.125 132.21875 C 42.460938 132.21875 43.636719 132.851562 44.378906 133.828125 L 50.9375 130.390625 C 50.773438 129.902344 50.683594 129.398438 50.683594 128.855469 C 50.683594 126.269531 52.777344 124.15625 55.378906 124.15625 C 57.964844 124.15625 60.078125 126.253906 60.078125 128.855469 C 60.078125 130.574219 59.15625 132.089844 57.765625 132.90625 L 59.933594 138.253906 C 60.277344 138.183594 60.621094 138.128906 61 138.128906 C 61.847656 138.128906 62.660156 138.363281 63.347656 138.78125 L 68.261719 132.8125 C 67.144531 131.65625 66.4375 130.085938 66.4375 128.347656 C 66.4375 124.824219 69.292969 121.949219 72.835938 121.949219 C 76.359375 121.949219 79.230469 124.804688 79.230469 128.347656 C 79.230469 129.921875 78.652344 131.367188 77.710938 132.472656 L 82.589844 137.605469 C 82.878906 137.460938 83.207031 137.386719 83.546875 137.386719 C 83.640625 137.386719 83.730469 137.386719 83.800781 137.40625 L 86.402344 131.785156 C 85.335938 131.042969 84.632812 129.8125 84.632812 128.402344 C 84.632812 126.144531 86.476562 124.300781 88.734375 124.300781 C 90.992188 124.300781 92.835938 126.144531 92.835938 128.402344 C 92.835938 128.910156 92.746094 129.398438 92.582031 129.832031 L 96.71875 132.234375 C 97.75 130.878906 99.394531 129.996094 101.21875 129.996094 C 104.34375 129.996094 106.875 132.523438 106.875 135.652344 C 106.875 136.410156 106.730469 137.132812 106.457031 137.785156 L 112.566406 141.203125 C 113.414062 140.097656 114.753906 139.375 116.269531 139.375 C 118.855469 139.375 120.949219 141.472656 120.949219 144.058594 C 120.949219 145.414062 120.371094 146.644531 119.449219 147.492188 L 122.703125 152.285156 C 123.335938 151.976562 124.058594 151.796875 124.816406 151.796875 C 127.488281 151.796875 129.660156 153.964844 129.660156 156.640625 C 129.660156 159.316406 127.488281 161.484375 124.816406 161.484375 C 123.496094 161.484375 122.285156 160.960938 121.417969 160.09375 L 116.144531 164.105469 C 116.304688 164.484375 116.394531 164.902344 116.394531 165.335938 C 116.394531 167.015625 115.042969 168.371094 113.359375 168.371094 C 113.164062 168.371094 112.964844 168.355469 112.78125 168.316406 L 109.835938 174.863281 C 111.085938 175.675781 111.914062 177.085938 111.914062 178.675781 C 111.914062 180.339844 111.011719 181.804688 109.675781 182.597656 L 111.101562 186.214844 C 111.570312 186.085938 112.042969 186.03125 112.546875 186.03125 C 113.488281 186.03125 114.390625 186.269531 115.167969 186.664062 L 120.226562 179.21875 C 118.691406 177.933594 117.714844 176 117.714844 173.832031 Z M 41.867188 145.484375 L 41.847656 140.386719 C 43.78125 140.0625 45.246094 138.363281 45.246094 136.339844 C 45.246094 135.90625 45.171875 135.472656 45.046875 135.074219 L 51.605469 131.640625 C 52.453125 132.8125 53.84375 133.574219 55.398438 133.574219 C 55.777344 133.574219 56.140625 133.539062 56.5 133.445312 L 58.667969 138.796875 C 57.332031 139.59375 56.429688 141.058594 56.429688 142.738281 C 56.429688 144.761719 57.746094 146.480469 59.574219 147.09375 L 58.597656 152.878906 C 58.46875 152.878906 58.34375 152.863281 58.199219 152.863281 C 54.621094 152.863281 51.730469 155.753906 51.730469 159.332031 C 51.730469 162.914062 54.621094 165.804688 58.199219 165.804688 C 61.597656 165.804688 64.378906 163.183594 64.648438 159.859375 L 68.390625 159.75 C 68.695312 160.5625 69.472656 161.140625 70.394531 161.140625 C 71.046875 161.140625 71.625 160.851562 72.019531 160.382812 L 76.917969 162.335938 C 76.863281 162.625 76.828125 162.914062 76.828125 163.203125 C 76.828125 165.480469 78.6875 167.339844 80.964844 167.339844 C 83.242188 167.339844 85.101562 165.480469 85.101562 163.203125 C 85.101562 162.207031 84.742188 161.285156 84.164062 160.5625 L 89.347656 154.5625 C 90.25 155.15625 91.335938 155.519531 92.492188 155.519531 C 95.617188 155.519531 98.148438 152.988281 98.148438 149.859375 C 98.148438 146.734375 95.617188 144.203125 92.492188 144.203125 C 91.316406 144.203125 90.214844 144.5625 89.3125 145.179688 L 85.445312 140.75 C 85.644531 140.425781 85.753906 140.027344 85.753906 139.609375 C 85.753906 138.980469 85.480469 138.398438 85.046875 137.984375 L 87.632812 132.363281 C 87.976562 132.453125 88.335938 132.507812 88.699219 132.507812 C 89.960938 132.507812 91.101562 131.929688 91.84375 131.023438 L 95.980469 133.429688 C 95.691406 134.117188 95.527344 134.855469 95.527344 135.652344 C 95.527344 138.78125 98.058594 141.308594 101.183594 141.308594 C 101.488281 141.308594 101.796875 141.292969 102.085938 141.238281 L 103.710938 146.859375 C 103.097656 147.277344 102.699219 147.960938 102.699219 148.757812 C 102.699219 149.679688 103.242188 150.457031 104 150.835938 L 103.332031 155.644531 C 101.128906 155.71875 99.359375 157.527344 99.359375 159.75 C 99.359375 160.003906 99.375 160.253906 99.429688 160.507812 L 93.558594 162.675781 C 93.160156 162.171875 92.546875 161.863281 91.859375 161.863281 C 90.648438 161.863281 89.671875 162.839844 89.671875 164.050781 C 89.671875 164.628906 89.890625 165.136719 90.25 165.535156 L 87.269531 170.957031 C 86.964844 170.867188 86.636719 170.8125 86.3125 170.8125 C 84.46875 170.8125 82.988281 172.292969 82.988281 174.136719 C 82.988281 175.980469 84.46875 177.464844 86.3125 177.464844 C 88.15625 177.464844 89.636719 175.980469 89.636719 174.136719 L 97.875 172.386719 C 98.074219 172.710938 98.328125 172.980469 98.652344 173.164062 L 96.230469 184.730469 C 96.035156 184.714844 95.816406 184.695312 95.601562 184.695312 C 93.792969 184.695312 92.148438 185.453125 90.976562 186.664062 L 86.492188 183.230469 C 86.566406 183.015625 86.621094 182.761719 86.621094 182.527344 C 86.621094 181.316406 85.644531 180.339844 84.433594 180.339844 C 83.222656 180.339844 82.246094 181.316406 82.246094 182.527344 C 82.246094 182.742188 82.285156 182.941406 82.339844 183.140625 L 79.5 185.109375 C 78.308594 183.738281 76.554688 182.871094 74.605469 182.871094 C 71.027344 182.871094 68.136719 185.761719 68.136719 189.339844 C 68.136719 189.414062 68.136719 189.484375 68.136719 189.539062 L 63.292969 190.207031 C 63.023438 189.324219 62.445312 188.546875 61.703125 188.023438 L 66.871094 177.554688 C 67.414062 177.734375 68.011719 177.84375 68.625 177.84375 C 71.605469 177.84375 74.027344 175.421875 74.027344 172.4375 C 74.027344 169.457031 71.605469 167.050781 68.625 167.050781 C 65.949219 167.050781 63.726562 169.003906 63.292969 171.570312 L 59.03125 171.425781 C 58.757812 170.558594 57.964844 169.945312 57.023438 169.945312 C 55.867188 169.945312 54.910156 170.882812 54.910156 172.058594 C 54.910156 172.492188 55.039062 172.871094 55.253906 173.214844 L 51.839844 177.644531 C 50.972656 177.121094 49.960938 176.832031 48.894531 176.832031 C 45.714844 176.832031 43.128906 179.417969 43.128906 182.597656 C 43.128906 182.617188 43.128906 182.652344 43.128906 182.671875 L 39.171875 183.195312 C 38.738281 181.804688 37.601562 180.699219 36.175781 180.339844 L 36.554688 175.710938 C 37.492188 175.476562 38.179688 174.625 38.179688 173.632812 C 38.179688 173.214844 38.054688 172.820312 37.855469 172.492188 L 45.929688 162.550781 C 46.164062 162.640625 46.417969 162.675781 46.671875 162.675781 C 47.863281 162.675781 48.820312 161.71875 48.820312 160.527344 C 48.820312 159.351562 47.863281 158.375 46.671875 158.375 C 46.5625 158.375 46.453125 158.375 46.363281 158.394531 L 45.117188 155.972656 C 46.636719 154.941406 47.648438 153.1875 47.648438 151.199219 C 47.648438 148.015625 45.0625 145.433594 41.882812 145.433594 C 41.847656 145.433594 41.828125 145.433594 41.8125 145.433594 Z M 59.953125 153.113281 L 60.925781 147.332031 C 60.945312 147.332031 60.980469 147.332031 61 147.332031 C 62.660156 147.332031 64.105469 146.445312 64.921875 145.125 L 71.605469 147.890625 C 71.515625 148.269531 71.460938 148.648438 71.460938 149.066406 C 71.460938 151.703125 73.59375 153.839844 76.230469 153.839844 C 78.867188 153.839844 81 151.703125 81 149.066406 C 81 147.78125 80.496094 146.625 79.683594 145.757812 L 82.808594 141.726562 C 83.042969 141.816406 83.296875 141.851562 83.546875 141.851562 C 83.855469 141.851562 84.144531 141.796875 84.414062 141.671875 L 88.28125 146.101562 C 87.378906 147.09375 86.835938 148.433594 86.835938 149.878906 C 86.835938 151.34375 87.398438 152.664062 88.300781 153.675781 L 83.113281 159.675781 C 82.484375 159.296875 81.761719 159.082031 80.964844 159.082031 C 79.464844 159.082031 78.164062 159.875 77.421875 161.070312 L 72.527344 159.117188 C 72.527344 159.082031 72.527344 159.042969 72.527344 159.007812 C 72.527344 157.816406 71.570312 156.855469 70.378906 156.855469 C 69.417969 156.855469 68.605469 157.488281 68.335938 158.375 L 64.59375 158.484375 C 64.25 155.898438 62.390625 153.820312 59.933594 153.113281 Z M 76.699219 133.445312 L 81.578125 138.582031 C 81.417969 138.886719 81.308594 139.25 81.308594 139.628906 C 81.308594 140.082031 81.453125 140.515625 81.6875 140.875 L 78.5625 144.90625 C 77.875 144.511719 77.0625 144.292969 76.214844 144.292969 C 74.476562 144.292969 72.960938 145.234375 72.128906 146.605469 L 65.445312 143.824219 C 65.535156 143.480469 65.570312 143.101562 65.570312 142.71875 C 65.570312 141.546875 65.121094 140.480469 64.394531 139.664062 L 69.3125 133.699219 C 70.324219 134.367188 71.515625 134.75 72.816406 134.75 C 74.28125 134.75 75.617188 134.261719 76.699219 133.429688 Z M 105.050781 146.515625 L 103.421875 140.875 C 104.363281 140.480469 105.15625 139.828125 105.753906 139.015625 L 111.859375 142.429688 C 111.664062 142.9375 111.554688 143.496094 111.554688 144.078125 C 111.554688 144.472656 111.609375 144.855469 111.699219 145.234375 L 106.746094 147.3125 C 106.332031 146.824219 105.734375 146.515625 105.050781 146.5 Z M 93.957031 197.296875 L 93 203.222656 C 91.734375 203.367188 90.738281 204.453125 90.738281 205.753906 C 90.738281 206.949219 91.554688 207.941406 92.65625 208.230469 L 92.746094 212.714844 C 92.710938 212.734375 92.65625 212.75 92.617188 212.769531 L 89.457031 210.128906 C 89.601562 209.824219 89.671875 209.480469 89.671875 209.117188 C 89.671875 207.816406 88.679688 206.75 87.414062 206.621094 L 86.875 203.621094 C 88.679688 203.007812 89.980469 201.289062 89.980469 199.285156 C 89.980469 198.453125 89.765625 197.675781 89.367188 197.007812 L 91.117188 195.613281 C 91.894531 196.390625 92.871094 196.988281 93.972656 197.277344 Z M 38.035156 155.484375 L 33.175781 162.226562 C 32.777344 162.0625 32.34375 161.953125 31.890625 161.953125 C 30.121094 161.953125 28.675781 163.402344 28.675781 165.171875 C 28.675781 166.074219 29.054688 166.90625 29.667969 167.484375 L 24.59375 175.765625 C 23.960938 175.476562 23.253906 175.332031 22.515625 175.332031 C 22.460938 175.332031 22.425781 175.332031 22.371094 175.332031 L 21.972656 172.890625 C 23.90625 172.277344 25.296875 170.46875 25.296875 168.355469 C 25.296875 166.183594 23.851562 164.359375 21.863281 163.78125 L 22.152344 161.664062 C 22.242188 161.664062 22.332031 161.664062 22.441406 161.664062 C 26.289062 161.664062 29.417969 158.539062 29.417969 154.6875 C 29.417969 154.507812 29.417969 154.34375 29.398438 154.164062 L 36.425781 152.933594 C 36.734375 153.929688 37.292969 154.8125 38.035156 155.5 Z M 43.3125 169.546875 C 43.3125 167.289062 45.152344 165.445312 47.414062 165.445312 C 49.671875 165.445312 51.515625 167.289062 51.515625 169.546875 C 51.515625 171.804688 49.671875 173.648438 47.414062 173.648438 C 45.152344 173.648438 43.3125 171.804688 43.3125 169.546875 Z M 47.703125 142.015625 C 47.703125 140.824219 48.660156 139.863281 49.851562 139.863281 C 51.042969 139.863281 52 140.824219 52 142.015625 C 52 143.191406 51.042969 144.167969 49.851562 144.167969 C 48.675781 144.167969 47.703125 143.207031 47.703125 142.015625 Z M 47.703125 142.015625 " clip-rule="evenodd"/></clipPath><linearGradient x1="39.985145" gradientTransform="matrix(1.806808, 0, 0, 1.807704, 15.468091, 121.968107)" y1="-0.15448" x2="39.673595" gradientUnits="userSpaceOnUse" y2="52.365338" id="44fc72c6bc"><stop stop-opacity="1" stop-color="rgb(100%, 100%, 100%)" offset="0"/><stop stop-opacity="1" stop-color="rgb(99.890137%, 99.890137%, 99.890137%)" offset="0.00726688"/><stop stop-opacity="1" stop-color="rgb(99.781799%, 99.781799%, 99.781799%)" offset="0.125"/><stop stop-opacity="1" stop-color="rgb(99.641418%, 99.641418%, 99.641418%)" offset="0.140625"/><stop stop-opacity="1" stop-color="rgb(99.362183%, 99.362183%, 99.362183%)" offset="0.15625"/><stop stop-opacity="1" stop-color="rgb(99.082947%, 99.082947%, 99.082947%)" offset="0.171875"/><stop stop-opacity="1" stop-color="rgb(98.803711%, 98.803711%, 98.803711%)" offset="0.1875"/><stop stop-opacity="1" stop-color="rgb(98.526001%, 98.526001%, 98.526001%)" offset="0.203125"/><stop stop-opacity="1" stop-color="rgb(98.246765%, 98.246765%, 98.246765%)" offset="0.21875"/><stop stop-opacity="1" stop-color="rgb(97.967529%, 97.967529%, 97.967529%)" offset="0.234375"/><stop stop-opacity="1" stop-color="rgb(97.688293%, 97.688293%, 97.688293%)" offset="0.25"/><stop stop-opacity="1" stop-color="rgb(97.409058%, 97.409058%, 97.409058%)" offset="0.265625"/><stop stop-opacity="1" stop-color="rgb(97.131348%, 97.131348%, 97.131348%)" offset="0.28125"/><stop stop-opacity="1" stop-color="rgb(96.852112%, 96.852112%, 96.852112%)" offset="0.296875"/><stop stop-opacity="1" stop-color="rgb(96.572876%, 96.572876%, 96.572876%)" offset="0.3125"/><stop stop-opacity="1" stop-color="rgb(96.29364%, 96.29364%, 96.29364%)" offset="0.328125"/><stop stop-opacity="1" stop-color="rgb(96.014404%, 96.014404%, 96.014404%)" offset="0.34375"/><stop stop-opacity="1" stop-color="rgb(95.735168%, 95.735168%, 95.735168%)" offset="0.359375"/><stop stop-opacity="1" stop-color="rgb(95.457458%, 95.457458%, 95.457458%)" offset="0.375"/><stop stop-opacity="1" stop-color="rgb(95.178223%, 95.178223%, 95.178223%)" offset="0.390625"/><stop stop-opacity="1" stop-color="rgb(94.898987%, 94.898987%, 94.898987%)" offset="0.40625"/><stop stop-opacity="1" stop-color="rgb(94.619751%, 94.619751%, 94.619751%)" offset="0.421875"/><stop stop-opacity="1" stop-color="rgb(94.340515%, 94.340515%, 94.340515%)" offset="0.4375"/><stop stop-opacity="1" stop-color="rgb(94.061279%, 94.061279%, 94.061279%)" offset="0.453125"/><stop stop-opacity="1" stop-color="rgb(93.783569%, 93.783569%, 93.783569%)" offset="0.46875"/><stop stop-opacity="1" stop-color="rgb(93.504333%, 93.504333%, 93.504333%)" offset="0.484375"/><stop stop-opacity="1" stop-color="rgb(93.225098%, 93.225098%, 93.225098%)" offset="0.5"/><stop stop-opacity="1" stop-color="rgb(92.945862%, 92.945862%, 92.945862%)" offset="0.515625"/><stop stop-opacity="1" stop-color="rgb(92.666626%, 92.666626%, 92.666626%)" offset="0.53125"/><stop stop-opacity="1" stop-color="rgb(92.388916%, 92.388916%, 92.388916%)" offset="0.546875"/><stop stop-opacity="1" stop-color="rgb(92.10968%, 92.10968%, 92.10968%)" offset="0.5625"/><stop stop-opacity="1" stop-color="rgb(91.830444%, 91.830444%, 91.830444%)" offset="0.578125"/><stop stop-opacity="1" stop-color="rgb(91.551208%, 91.551208%, 91.551208%)" offset="0.59375"/><stop stop-opacity="1" stop-color="rgb(91.271973%, 91.271973%, 91.271973%)" offset="0.609375"/><stop stop-opacity="1" stop-color="rgb(90.992737%, 90.992737%, 90.992737%)" offset="0.625"/><stop stop-opacity="1" stop-color="rgb(90.715027%, 90.715027%, 90.715027%)" offset="0.640625"/><stop stop-opacity="1" stop-color="rgb(90.435791%, 90.435791%, 90.435791%)" offset="0.65625"/><stop stop-opacity="1" stop-color="rgb(90.156555%, 90.156555%, 90.156555%)" offset="0.671875"/><stop stop-opacity="1" stop-color="rgb(89.877319%, 89.877319%, 89.877319%)" offset="0.6875"/><stop stop-opacity="1" stop-color="rgb(89.598083%, 89.598083%, 89.598083%)" offset="0.703125"/><stop stop-opacity="1" stop-color="rgb(89.318848%, 89.318848%, 89.318848%)" offset="0.71875"/><stop stop-opacity="1" stop-color="rgb(89.041138%, 89.041138%, 89.041138%)" offset="0.734375"/><stop stop-opacity="1" stop-color="rgb(88.761902%, 88.761902%, 88.761902%)" offset="0.75"/><stop stop-opacity="1" stop-color="rgb(88.482666%, 88.482666%, 88.482666%)" offset="0.765625"/><stop stop-opacity="1" stop-color="rgb(88.20343%, 88.20343%, 88.20343%)" offset="0.78125"/><stop stop-opacity="1" stop-color="rgb(87.924194%, 87.924194%, 87.924194%)" offset="0.796875"/><stop stop-opacity="1" stop-color="rgb(87.644958%, 87.644958%, 87.644958%)" offset="0.8125"/><stop stop-opacity="1" stop-color="rgb(87.367249%, 87.367249%, 87.367249%)" offset="0.828125"/><stop stop-opacity="1" stop-color="rgb(87.088013%, 87.088013%, 87.088013%)" offset="0.84375"/><stop stop-opacity="1" stop-color="rgb(86.808777%, 86.808777%, 86.808777%)" offset="0.859375"/><stop stop-opacity="1" stop-color="rgb(86.529541%, 86.529541%, 86.529541%)" offset="0.875"/><stop stop-opacity="1" stop-color="rgb(86.250305%, 86.250305%, 86.250305%)" offset="0.890625"/><stop stop-opacity="1" stop-color="rgb(85.972595%, 85.972595%, 85.972595%)" offset="0.90625"/><stop stop-opacity="1" stop-color="rgb(85.693359%, 85.693359%, 85.693359%)" offset="0.921875"/><stop stop-opacity="1" stop-color="rgb(85.414124%, 85.414124%, 85.414124%)" offset="0.9375"/><stop stop-opacity="1" stop-color="rgb(85.186768%, 85.186768%, 85.186768%)" offset="0.992733"/><stop stop-opacity="1" stop-color="rgb(85.099792%, 85.099792%, 85.099792%)" offset="1"/></linearGradient></defs><g clip-path="url(#c473af785a)"><g clip-path="url(#f1f8de8a86)"><path fill="url(#44fc72c6bc)" d="M 15.46875 121.949219 L 15.46875 216.203125 L 131.71875 216.203125 L 131.71875 121.949219 Z M 15.46875 121.949219 " fill-rule="nonzero"/></g></g><g fill="#ffffff" fill-opacity="1"><g transform="translate(142.823375, 177.152098)"><g><path d="M 7.5 -6.15625 L 7.5 -0.125 C 7.269531 -0.0625 6.910156 0 6.421875 0.0625 C 5.929688 0.125 5.441406 0.15625 4.953125 0.15625 C 4.472656 0.15625 4.050781 0.117188 3.6875 0.046875 C 3.320312 -0.0234375 3.019531 -0.15625 2.78125 -0.34375 C 2.539062 -0.53125 2.359375 -0.789062 2.234375 -1.125 C 2.109375 -1.457031 2.046875 -1.898438 2.046875 -2.453125 L 2.046875 -17.234375 C 2.046875 -17.671875 2.164062 -18.007812 2.40625 -18.25 C 2.644531 -18.488281 2.972656 -18.679688 3.390625 -18.828125 C 4.097656 -19.085938 4.921875 -19.273438 5.859375 -19.390625 C 6.804688 -19.503906 7.816406 -19.5625 8.890625 -19.5625 C 11.773438 -19.5625 13.945312 -18.953125 15.40625 -17.734375 C 16.875 -16.523438 17.609375 -14.882812 17.609375 -12.8125 C 17.609375 -11.507812 17.269531 -10.394531 16.59375 -9.46875 C 15.925781 -8.550781 15.132812 -7.84375 14.21875 -7.34375 C 14.96875 -6.320312 15.707031 -5.359375 16.4375 -4.453125 C 17.175781 -3.554688 17.753906 -2.742188 18.171875 -2.015625 C 17.960938 -1.273438 17.582031 -0.710938 17.03125 -0.328125 C 16.476562 0.0546875 15.851562 0.25 15.15625 0.25 C 14.695312 0.25 14.300781 0.195312 13.96875 0.09375 C 13.632812 -0.0078125 13.34375 -0.15625 13.09375 -0.34375 C 12.84375 -0.53125 12.609375 -0.757812 12.390625 -1.03125 C 12.179688 -1.300781 11.984375 -1.597656 11.796875 -1.921875 L 9.171875 -6.15625 Z M 9.484375 -10.328125 C 10.273438 -10.328125 10.898438 -10.53125 11.359375 -10.9375 C 11.816406 -11.34375 12.046875 -11.945312 12.046875 -12.75 C 12.046875 -13.539062 11.789062 -14.140625 11.28125 -14.546875 C 10.769531 -14.953125 9.960938 -15.15625 8.859375 -15.15625 C 8.535156 -15.15625 8.28125 -15.144531 8.09375 -15.125 C 7.90625 -15.101562 7.695312 -15.070312 7.46875 -15.03125 L 7.46875 -10.328125 Z M 9.484375 -10.328125 "/></g></g></g><g fill="#ffffff" fill-opacity="1"><g transform="translate(166.338245, 177.152098)"><g><path d="M 17.421875 -7.625 C 17.421875 -6.332031 17.222656 -5.175781 16.828125 -4.15625 C 16.429688 -3.144531 15.867188 -2.289062 15.140625 -1.59375 C 14.421875 -0.90625 13.554688 -0.382812 12.546875 -0.03125 C 11.546875 0.320312 10.429688 0.5 9.203125 0.5 C 7.960938 0.5 6.835938 0.3125 5.828125 -0.0625 C 4.828125 -0.4375 3.96875 -0.972656 3.25 -1.671875 C 2.53125 -2.378906 1.96875 -3.234375 1.5625 -4.234375 C 1.164062 -5.242188 0.96875 -6.375 0.96875 -7.625 C 0.96875 -8.863281 1.164062 -9.984375 1.5625 -10.984375 C 1.96875 -11.992188 2.53125 -12.847656 3.25 -13.546875 C 3.96875 -14.242188 4.828125 -14.78125 5.828125 -15.15625 C 6.835938 -15.539062 7.960938 -15.734375 9.203125 -15.734375 C 10.429688 -15.734375 11.546875 -15.535156 12.546875 -15.140625 C 13.554688 -14.753906 14.421875 -14.210938 15.140625 -13.515625 C 15.867188 -12.816406 16.429688 -11.960938 16.828125 -10.953125 C 17.222656 -9.953125 17.421875 -8.84375 17.421875 -7.625 Z M 6.4375 -7.625 C 6.4375 -6.351562 6.679688 -5.375 7.171875 -4.6875 C 7.660156 -4.007812 8.347656 -3.671875 9.234375 -3.671875 C 10.109375 -3.671875 10.78125 -4.015625 11.25 -4.703125 C 11.71875 -5.398438 11.953125 -6.375 11.953125 -7.625 C 11.953125 -8.882812 11.710938 -9.851562 11.234375 -10.53125 C 10.753906 -11.207031 10.078125 -11.546875 9.203125 -11.546875 C 8.316406 -11.546875 7.632812 -11.207031 7.15625 -10.53125 C 6.675781 -9.851562 6.4375 -8.882812 6.4375 -7.625 Z M 6.4375 -7.625 "/></g></g></g><g fill="#ffffff" fill-opacity="1"><g transform="translate(189.131039, 177.152098)"><g><path d="M 8.953125 -15.734375 C 9.804688 -15.734375 10.644531 -15.609375 11.46875 -15.359375 C 12.300781 -15.117188 13.019531 -14.757812 13.625 -14.28125 C 14.25 -14.695312 14.953125 -15.039062 15.734375 -15.3125 C 16.523438 -15.59375 17.472656 -15.734375 18.578125 -15.734375 C 19.378906 -15.734375 20.160156 -15.625 20.921875 -15.40625 C 21.679688 -15.195312 22.359375 -14.867188 22.953125 -14.421875 C 23.554688 -13.972656 24.035156 -13.375 24.390625 -12.625 C 24.742188 -11.882812 24.921875 -10.984375 24.921875 -9.921875 L 24.921875 -0.03125 C 24.710938 0.03125 24.382812 0.09375 23.9375 0.15625 C 23.488281 0.21875 23.019531 0.25 22.53125 0.25 C 22.070312 0.25 21.660156 0.21875 21.296875 0.15625 C 20.929688 0.09375 20.625 -0.03125 20.375 -0.21875 C 20.125 -0.40625 19.929688 -0.660156 19.796875 -0.984375 C 19.660156 -1.304688 19.59375 -1.734375 19.59375 -2.265625 L 19.59375 -9.765625 C 19.59375 -10.390625 19.410156 -10.84375 19.046875 -11.125 C 18.691406 -11.40625 18.210938 -11.546875 17.609375 -11.546875 C 17.316406 -11.546875 17.003906 -11.476562 16.671875 -11.34375 C 16.335938 -11.207031 16.085938 -11.066406 15.921875 -10.921875 C 15.941406 -10.835938 15.953125 -10.757812 15.953125 -10.6875 C 15.953125 -10.613281 15.953125 -10.546875 15.953125 -10.484375 L 15.953125 -0.03125 C 15.710938 0.03125 15.367188 0.09375 14.921875 0.15625 C 14.472656 0.21875 14.019531 0.25 13.5625 0.25 C 13.101562 0.25 12.6875 0.21875 12.3125 0.15625 C 11.945312 0.09375 11.640625 -0.03125 11.390625 -0.21875 C 11.140625 -0.40625 10.945312 -0.660156 10.8125 -0.984375 C 10.675781 -1.304688 10.609375 -1.734375 10.609375 -2.265625 L 10.609375 -9.765625 C 10.609375 -10.390625 10.414062 -10.84375 10.03125 -11.125 C 9.644531 -11.40625 9.175781 -11.546875 8.625 -11.546875 C 8.25 -11.546875 7.925781 -11.488281 7.65625 -11.375 C 7.382812 -11.257812 7.15625 -11.148438 6.96875 -11.046875 L 6.96875 -0.03125 C 6.757812 0.03125 6.429688 0.09375 5.984375 0.15625 C 5.535156 0.21875 5.066406 0.25 4.578125 0.25 C 4.117188 0.25 3.707031 0.21875 3.34375 0.15625 C 2.976562 0.09375 2.671875 -0.03125 2.421875 -0.21875 C 2.171875 -0.40625 1.972656 -0.660156 1.828125 -0.984375 C 1.691406 -1.304688 1.625 -1.734375 1.625 -2.265625 L 1.625 -11.734375 C 1.625 -12.304688 1.742188 -12.757812 1.984375 -13.09375 C 2.234375 -13.425781 2.566406 -13.738281 2.984375 -14.03125 C 3.691406 -14.53125 4.570312 -14.9375 5.625 -15.25 C 6.6875 -15.570312 7.796875 -15.734375 8.953125 -15.734375 Z M 8.953125 -15.734375 "/></g></g></g><g fill="#ffffff" fill-opacity="1"><g transform="translate(220.086416, 177.152098)"><g><path d="M 9.703125 0.5 C 8.460938 0.5 7.3125 0.328125 6.25 -0.015625 C 5.195312 -0.359375 4.28125 -0.875 3.5 -1.5625 C 2.71875 -2.257812 2.097656 -3.128906 1.640625 -4.171875 C 1.191406 -5.222656 0.96875 -6.445312 0.96875 -7.84375 C 0.96875 -9.226562 1.191406 -10.414062 1.640625 -11.40625 C 2.097656 -12.40625 2.691406 -13.222656 3.421875 -13.859375 C 4.148438 -14.492188 4.984375 -14.960938 5.921875 -15.265625 C 6.867188 -15.578125 7.835938 -15.734375 8.828125 -15.734375 C 9.929688 -15.734375 10.9375 -15.5625 11.84375 -15.21875 C 12.757812 -14.882812 13.546875 -14.425781 14.203125 -13.84375 C 14.859375 -13.257812 15.367188 -12.554688 15.734375 -11.734375 C 16.109375 -10.921875 16.296875 -10.035156 16.296875 -9.078125 C 16.296875 -8.359375 16.09375 -7.8125 15.6875 -7.4375 C 15.289062 -7.0625 14.738281 -6.820312 14.03125 -6.71875 L 6.28125 -5.5625 C 6.507812 -4.863281 6.976562 -4.34375 7.6875 -4 C 8.40625 -3.65625 9.222656 -3.484375 10.140625 -3.484375 C 10.992188 -3.484375 11.800781 -3.59375 12.5625 -3.8125 C 13.332031 -4.03125 13.957031 -4.285156 14.4375 -4.578125 C 14.769531 -4.367188 15.050781 -4.078125 15.28125 -3.703125 C 15.507812 -3.328125 15.625 -2.929688 15.625 -2.515625 C 15.625 -1.566406 15.1875 -0.863281 14.3125 -0.40625 C 13.644531 -0.0507812 12.890625 0.1875 12.046875 0.3125 C 11.210938 0.4375 10.429688 0.5 9.703125 0.5 Z M 8.828125 -11.828125 C 8.316406 -11.828125 7.878906 -11.742188 7.515625 -11.578125 C 7.148438 -11.410156 6.851562 -11.195312 6.625 -10.9375 C 6.394531 -10.675781 6.222656 -10.382812 6.109375 -10.0625 C 5.992188 -9.738281 5.925781 -9.410156 5.90625 -9.078125 L 11.265625 -9.953125 C 11.203125 -10.367188 10.972656 -10.785156 10.578125 -11.203125 C 10.179688 -11.617188 9.597656 -11.828125 8.828125 -11.828125 Z M 8.828125 -11.828125 "/></g></g></g><g fill="#ffffff" fill-opacity="1"><g transform="translate(241.717614, 177.152098)"><g><path d="M 17.421875 -7.625 C 17.421875 -6.332031 17.222656 -5.175781 16.828125 -4.15625 C 16.429688 -3.144531 15.867188 -2.289062 15.140625 -1.59375 C 14.421875 -0.90625 13.554688 -0.382812 12.546875 -0.03125 C 11.546875 0.320312 10.429688 0.5 9.203125 0.5 C 7.960938 0.5 6.835938 0.3125 5.828125 -0.0625 C 4.828125 -0.4375 3.96875 -0.972656 3.25 -1.671875 C 2.53125 -2.378906 1.96875 -3.234375 1.5625 -4.234375 C 1.164062 -5.242188 0.96875 -6.375 0.96875 -7.625 C 0.96875 -8.863281 1.164062 -9.984375 1.5625 -10.984375 C 1.96875 -11.992188 2.53125 -12.847656 3.25 -13.546875 C 3.96875 -14.242188 4.828125 -14.78125 5.828125 -15.15625 C 6.835938 -15.539062 7.960938 -15.734375 9.203125 -15.734375 C 10.429688 -15.734375 11.546875 -15.535156 12.546875 -15.140625 C 13.554688 -14.753906 14.421875 -14.210938 15.140625 -13.515625 C 15.867188 -12.816406 16.429688 -11.960938 16.828125 -10.953125 C 17.222656 -9.953125 17.421875 -8.84375 17.421875 -7.625 Z M 6.4375 -7.625 C 6.4375 -6.351562 6.679688 -5.375 7.171875 -4.6875 C 7.660156 -4.007812 8.347656 -3.671875 9.234375 -3.671875 C 10.109375 -3.671875 10.78125 -4.015625 11.25 -4.703125 C 11.71875 -5.398438 11.953125 -6.375 11.953125 -7.625 C 11.953125 -8.882812 11.710938 -9.851562 11.234375 -10.53125 C 10.753906 -11.207031 10.078125 -11.546875 9.203125 -11.546875 C 8.316406 -11.546875 7.632812 -11.207031 7.15625 -10.53125 C 6.675781 -9.851562 6.4375 -8.882812 6.4375 -7.625 Z M 6.4375 -7.625 "/></g></g></g><g fill="#ffffff" fill-opacity="1"><g transform="translate(264.510409, 177.152098)"><g><path d="M 0.6875 -2.546875 C 0.6875 -3.421875 0.957031 -4.148438 1.5 -4.734375 C 2.050781 -5.328125 2.796875 -5.625 3.734375 -5.625 C 4.671875 -5.625 5.410156 -5.328125 5.953125 -4.734375 C 6.503906 -4.148438 6.78125 -3.421875 6.78125 -2.546875 C 6.78125 -1.660156 6.503906 -0.925781 5.953125 -0.34375 C 5.410156 0.238281 4.671875 0.53125 3.734375 0.53125 C 2.796875 0.53125 2.050781 0.238281 1.5 -0.34375 C 0.957031 -0.925781 0.6875 -1.660156 0.6875 -2.546875 Z M 0.6875 -2.546875 "/></g></g></g><g fill="#ffffff" fill-opacity="1"><g transform="translate(276.377909, 177.152098)"><g><path d="M 6.09375 -18.453125 C 6.445312 -18.660156 6.984375 -18.859375 7.703125 -19.046875 C 8.429688 -19.242188 9.160156 -19.34375 9.890625 -19.34375 C 10.929688 -19.34375 11.851562 -19.1875 12.65625 -18.875 C 13.46875 -18.570312 13.988281 -18.097656 14.21875 -17.453125 C 14.59375 -16.367188 15 -15.101562 15.4375 -13.65625 C 15.882812 -12.207031 16.328125 -10.710938 16.765625 -9.171875 C 17.203125 -7.640625 17.628906 -6.125 18.046875 -4.625 C 18.460938 -3.132812 18.828125 -1.8125 19.140625 -0.65625 C 18.890625 -0.363281 18.515625 -0.128906 18.015625 0.046875 C 17.515625 0.222656 16.921875 0.3125 16.234375 0.3125 C 15.722656 0.3125 15.296875 0.269531 14.953125 0.1875 C 14.609375 0.101562 14.328125 -0.0195312 14.109375 -0.1875 C 13.890625 -0.351562 13.710938 -0.570312 13.578125 -0.84375 C 13.441406 -1.113281 13.320312 -1.429688 13.21875 -1.796875 L 12.65625 -3.953125 L 6.96875 -3.953125 C 6.800781 -3.328125 6.632812 -2.675781 6.46875 -2 C 6.300781 -1.332031 6.132812 -0.6875 5.96875 -0.0625 C 5.675781 0.0390625 5.363281 0.128906 5.03125 0.203125 C 4.707031 0.273438 4.316406 0.3125 3.859375 0.3125 C 2.796875 0.3125 2.003906 0.128906 1.484375 -0.234375 C 0.972656 -0.597656 0.71875 -1.109375 0.71875 -1.765625 C 0.71875 -2.054688 0.757812 -2.347656 0.84375 -2.640625 C 0.925781 -2.929688 1.019531 -3.273438 1.125 -3.671875 C 1.269531 -4.234375 1.472656 -4.929688 1.734375 -5.765625 C 2.003906 -6.609375 2.296875 -7.515625 2.609375 -8.484375 C 2.921875 -9.460938 3.253906 -10.460938 3.609375 -11.484375 C 3.960938 -12.515625 4.296875 -13.484375 4.609375 -14.390625 C 4.921875 -15.304688 5.207031 -16.117188 5.46875 -16.828125 C 5.738281 -17.535156 5.945312 -18.078125 6.09375 -18.453125 Z M 9.859375 -14.40625 C 9.566406 -13.53125 9.234375 -12.550781 8.859375 -11.46875 C 8.492188 -10.394531 8.164062 -9.300781 7.875 -8.1875 L 11.765625 -8.1875 C 11.472656 -9.320312 11.175781 -10.425781 10.875 -11.5 C 10.570312 -12.582031 10.296875 -13.550781 10.046875 -14.40625 Z M 9.859375 -14.40625 "/></g></g></g><g fill="#ffffff" fill-opacity="1"><g transform="translate(300.457878, 177.152098)"><g><path d="M 7.53125 -0.125 C 7.300781 -0.0625 6.941406 0 6.453125 0.0625 C 5.960938 0.125 5.472656 0.15625 4.984375 0.15625 C 4.503906 0.15625 4.082031 0.117188 3.71875 0.046875 C 3.351562 -0.0234375 3.046875 -0.15625 2.796875 -0.34375 C 2.546875 -0.53125 2.359375 -0.789062 2.234375 -1.125 C 2.109375 -1.457031 2.046875 -1.898438 2.046875 -2.453125 L 2.046875 -19.015625 C 2.273438 -19.054688 2.640625 -19.113281 3.140625 -19.1875 C 3.640625 -19.269531 4.117188 -19.3125 4.578125 -19.3125 C 5.066406 -19.3125 5.492188 -19.269531 5.859375 -19.1875 C 6.222656 -19.113281 6.53125 -18.984375 6.78125 -18.796875 C 7.03125 -18.609375 7.21875 -18.347656 7.34375 -18.015625 C 7.46875 -17.679688 7.53125 -17.242188 7.53125 -16.703125 Z M 7.53125 -0.125 "/></g></g></g></svg>