<svg xmlns="http://www.w3.org/2000/svg" xmlns:xlink="http://www.w3.org/1999/xlink" width="487" zoomAndPan="magnify" viewBox="0 0 365.25 107.999999" height="144" preserveAspectRatio="xMidYMid meet" version="1.0"><defs><g/><clipPath id="8410e337f1"><path d="M 10.777344 13 L 111.820312 13 L 111.820312 95.332031 L 10.777344 95.332031 Z M 10.777344 13 " clip-rule="nonzero"/></clipPath><clipPath id="116c4936e5"><path d="M 99.617188 58.339844 C 99.617188 54.953125 102.351562 52.230469 105.726562 52.230469 C 109.105469 52.230469 111.820312 54.96875 111.820312 58.339844 C 111.820312 61.726562 109.085938 64.449219 105.726562 64.449219 C 104.675781 64.449219 103.667969 64.183594 102.804688 63.710938 L 98.410156 70.199219 C 99.445312 71.113281 100.105469 72.449219 100.105469 73.964844 C 100.105469 76.71875 97.875 78.957031 95.125 78.957031 C 92.378906 78.957031 90.148438 76.71875 90.148438 73.964844 C 90.148438 72.074219 91.199219 70.417969 92.753906 69.585938 L 91.515625 66.433594 C 91.230469 66.496094 90.933594 66.527344 90.636719 66.527344 C 88.453125 66.527344 86.691406 64.75 86.691406 62.574219 C 86.691406 60.386719 88.46875 58.605469 90.636719 58.605469 C 90.996094 58.605469 91.359375 58.65625 91.6875 58.75 L 94.246094 53.046875 C 93.617188 52.558594 93.210938 51.804688 93.210938 50.953125 C 93.210938 49.488281 94.386719 48.308594 95.847656 48.308594 C 96.492188 48.308594 97.074219 48.527344 97.53125 48.921875 L 102.113281 45.425781 C 101.785156 44.828125 101.597656 44.117188 101.597656 43.378906 C 101.597656 42.148438 102.128906 41.03125 102.964844 40.257812 L 100.136719 36.085938 C 99.601562 36.335938 99.003906 36.480469 98.378906 36.480469 C 96.902344 36.480469 95.613281 35.691406 94.90625 34.527344 L 90.605469 36.335938 C 90.605469 36.402344 90.621094 36.464844 90.621094 36.511719 C 90.621094 37.503906 89.898438 38.320312 88.953125 38.480469 L 88.375 42.667969 C 89.820312 43.125 90.855469 44.480469 90.855469 46.070312 C 90.855469 48.039062 89.253906 49.644531 87.289062 49.644531 C 85.972656 49.644531 84.824219 48.921875 84.195312 47.851562 L 79.09375 49.742188 C 79.09375 49.757812 79.09375 49.773438 79.09375 49.804688 C 79.09375 50.859375 78.246094 51.710938 77.191406 51.710938 C 77.082031 51.710938 76.957031 51.695312 76.847656 51.675781 L 74.253906 56.402344 C 74.570312 56.6875 74.835938 57.03125 75.007812 57.425781 L 82.171875 55.914062 C 82.28125 54.96875 83.082031 54.230469 84.054688 54.230469 C 85.105469 54.230469 85.957031 55.078125 85.957031 56.132812 C 85.957031 57.109375 85.21875 57.914062 84.273438 58.023438 L 82.171875 68.105469 C 84.398438 68.828125 86.003906 70.921875 86.003906 73.394531 C 86.003906 76.46875 83.519531 78.972656 80.441406 78.972656 C 80.347656 78.972656 80.253906 78.972656 80.160156 78.972656 L 79.328125 84.136719 C 80.082031 84.484375 80.617188 85.253906 80.617188 86.152344 C 80.617188 87.160156 79.957031 87.996094 79.046875 88.277344 L 79.125 92.183594 C 79.703125 92.40625 80.128906 92.988281 80.128906 93.648438 C 80.128906 94.515625 79.421875 95.222656 78.558594 95.222656 C 77.695312 95.222656 76.988281 94.515625 76.988281 93.648438 C 76.988281 93.492188 77.019531 93.335938 77.066406 93.175781 L 74.316406 90.878906 C 73.972656 91.113281 73.546875 91.253906 73.078125 91.253906 C 71.867188 91.253906 70.894531 90.277344 70.894531 89.066406 C 70.894531 88.199219 71.398438 87.460938 72.121094 87.097656 L 71.648438 84.484375 C 71.617188 84.484375 71.570312 84.484375 71.539062 84.484375 C 69.339844 84.484375 67.550781 82.6875 67.550781 80.484375 C 67.550781 78.277344 69.339844 76.484375 71.539062 76.484375 C 72.589844 76.484375 73.53125 76.890625 74.238281 77.554688 L 75.761719 76.339844 C 75.214844 75.476562 74.898438 74.46875 74.898438 73.363281 C 74.898438 72.308594 75.199219 71.316406 75.714844 70.464844 L 71.820312 67.472656 C 71.523438 67.679688 71.160156 67.804688 70.769531 67.804688 C 70.34375 67.804688 69.953125 67.664062 69.636719 67.425781 L 67.171875 69.144531 C 67.613281 69.945312 67.847656 70.859375 67.847656 71.835938 C 67.847656 74.957031 65.335938 77.476562 62.226562 77.476562 C 59.585938 77.476562 57.390625 75.664062 56.777344 73.207031 L 52.566406 73.789062 C 52.519531 75.789062 50.886719 77.394531 48.875 77.394531 C 46.835938 77.394531 45.1875 75.742188 45.1875 73.695312 C 45.1875 71.648438 46.835938 69.992188 48.875 69.992188 C 49.253906 69.992188 49.613281 70.058594 49.945312 70.152344 L 54.4375 61.03125 C 53.289062 60.261719 52.503906 59 52.363281 57.550781 L 48.65625 57.425781 C 48.390625 58.117188 47.730469 58.605469 46.945312 58.605469 C 46.742188 58.605469 46.550781 58.574219 46.363281 58.511719 L 43.394531 62.371094 C 44.324219 63.285156 44.886719 64.542969 44.886719 65.945312 C 44.886719 68.71875 42.640625 70.96875 39.878906 70.96875 C 37.554688 70.96875 35.589844 69.363281 35.027344 67.207031 L 31.585938 67.664062 C 31.523438 69.632812 29.90625 71.222656 27.925781 71.222656 C 25.902344 71.222656 24.269531 69.585938 24.269531 67.554688 C 24.269531 65.632812 25.746094 64.054688 27.628906 63.898438 L 27.957031 59.867188 C 27.300781 59.582031 26.84375 58.921875 26.84375 58.152344 C 26.84375 57.125 27.675781 56.277344 28.710938 56.277344 C 28.949219 56.277344 29.152344 56.324219 29.355469 56.386719 L 36.375 47.722656 C 36.203125 47.441406 36.09375 47.09375 36.09375 46.730469 C 36.09375 46.226562 36.296875 45.773438 36.613281 45.441406 L 35.527344 43.332031 C 34.976562 43.535156 34.398438 43.644531 33.785156 43.644531 C 32.90625 43.644531 32.074219 43.410156 31.367188 43.015625 L 27.140625 48.890625 C 27.582031 49.378906 27.847656 50.039062 27.847656 50.765625 C 27.847656 52.308594 26.59375 53.566406 25.054688 53.566406 C 24.738281 53.566406 24.425781 53.519531 24.140625 53.410156 L 19.730469 60.625 C 20.734375 61.441406 21.363281 62.6875 21.363281 64.089844 C 21.363281 66.5625 19.367188 68.5625 16.902344 68.5625 C 14.4375 68.5625 12.441406 66.5625 12.441406 64.089844 C 12.441406 62.070312 13.777344 60.371094 15.597656 59.804688 L 15.253906 57.679688 C 15.222656 57.679688 15.207031 57.679688 15.175781 57.679688 C 12.882812 57.679688 11.027344 55.820312 11.027344 53.519531 C 11.027344 51.238281 12.867188 49.378906 15.144531 49.363281 L 15.394531 47.519531 C 12.742188 46.875 10.761719 44.464844 10.761719 41.597656 C 10.761719 38.242188 13.480469 35.519531 16.824219 35.519531 C 19.605469 35.519531 21.960938 37.394531 22.667969 39.960938 L 28.773438 38.875 C 28.773438 38.777344 28.773438 38.699219 28.773438 38.605469 C 28.773438 37.753906 28.996094 36.953125 29.355469 36.242188 L 24.847656 33.078125 C 24.347656 33.550781 23.671875 33.832031 22.933594 33.832031 C 21.378906 33.832031 20.105469 32.558594 20.105469 31 C 20.105469 29.441406 21.378906 28.164062 22.933594 28.164062 C 24.488281 28.164062 25.761719 29.441406 25.761719 31 C 25.761719 31.390625 25.679688 31.753906 25.539062 32.085938 L 30.046875 35.25 C 30.691406 34.527344 31.554688 33.992188 32.511719 33.738281 L 32.496094 29.15625 C 30.800781 28.871094 29.511719 27.40625 29.511719 25.628906 C 29.511719 23.660156 31.113281 22.054688 33.078125 22.054688 C 34.242188 22.054688 35.261719 22.605469 35.90625 23.453125 L 41.605469 20.460938 C 41.464844 20.039062 41.386719 19.597656 41.386719 19.125 C 41.386719 16.871094 43.207031 15.027344 45.46875 15.027344 C 47.714844 15.027344 49.550781 16.855469 49.550781 19.125 C 49.550781 20.621094 48.75 21.941406 47.542969 22.652344 L 49.425781 27.3125 C 49.726562 27.25 50.023438 27.203125 50.351562 27.203125 C 51.089844 27.203125 51.796875 27.40625 52.394531 27.769531 L 56.667969 22.574219 C 55.691406 21.566406 55.082031 20.195312 55.082031 18.683594 C 55.082031 15.613281 57.5625 13.109375 60.640625 13.109375 C 63.703125 13.109375 66.199219 15.597656 66.199219 18.683594 C 66.199219 20.054688 65.695312 21.3125 64.878906 22.273438 L 69.121094 26.746094 C 69.371094 26.621094 69.652344 26.558594 69.953125 26.558594 C 70.03125 26.558594 70.109375 26.558594 70.171875 26.574219 L 72.433594 21.675781 C 71.507812 21.03125 70.894531 19.957031 70.894531 18.730469 C 70.894531 16.761719 72.496094 15.15625 74.460938 15.15625 C 76.421875 15.15625 78.023438 16.761719 78.023438 18.730469 C 78.023438 19.171875 77.945312 19.597656 77.804688 19.972656 L 81.402344 22.070312 C 82.296875 20.886719 83.726562 20.117188 85.3125 20.117188 C 88.027344 20.117188 90.226562 22.320312 90.226562 25.046875 C 90.226562 25.707031 90.101562 26.335938 89.867188 26.902344 L 95.171875 29.878906 C 95.910156 28.917969 97.074219 28.289062 98.394531 28.289062 C 100.640625 28.289062 102.460938 30.117188 102.460938 32.367188 C 102.460938 33.550781 101.957031 34.621094 101.15625 35.359375 L 103.984375 39.535156 C 104.535156 39.265625 105.160156 39.109375 105.820312 39.109375 C 108.144531 39.109375 110.03125 41 110.03125 43.332031 C 110.03125 45.660156 108.144531 47.550781 105.820312 47.550781 C 104.675781 47.550781 103.621094 47.09375 102.867188 46.339844 L 98.28125 49.835938 C 98.425781 50.164062 98.503906 50.527344 98.503906 50.90625 C 98.503906 52.371094 97.324219 53.550781 95.863281 53.550781 C 95.691406 53.550781 95.519531 53.535156 95.363281 53.503906 L 92.800781 59.207031 C 93.886719 59.914062 94.609375 61.144531 94.609375 62.527344 C 94.609375 63.976562 93.824219 65.253906 92.660156 65.945312 L 93.902344 69.097656 C 94.308594 68.984375 94.71875 68.9375 95.15625 68.9375 C 95.972656 68.9375 96.761719 69.144531 97.433594 69.488281 L 101.832031 63 C 100.496094 61.882812 99.648438 60.199219 99.648438 58.308594 Z M 33.722656 33.613281 L 33.707031 29.171875 C 35.386719 28.886719 36.660156 27.40625 36.660156 25.644531 C 36.660156 25.265625 36.597656 24.886719 36.484375 24.542969 L 42.1875 21.550781 C 42.925781 22.574219 44.132812 23.234375 45.484375 23.234375 C 45.816406 23.234375 46.128906 23.203125 46.441406 23.125 L 48.328125 27.785156 C 47.164062 28.480469 46.378906 29.753906 46.378906 31.21875 C 46.378906 32.984375 47.527344 34.480469 49.113281 35.015625 L 48.265625 40.054688 C 48.15625 40.054688 48.042969 40.039062 47.917969 40.039062 C 44.808594 40.039062 42.296875 42.558594 42.296875 45.675781 C 42.296875 48.796875 44.808594 51.316406 47.917969 51.316406 C 50.871094 51.316406 53.289062 49.03125 53.527344 46.132812 L 56.777344 46.039062 C 57.042969 46.75 57.71875 47.253906 58.519531 47.253906 C 59.085938 47.253906 59.585938 47 59.933594 46.589844 L 64.1875 48.292969 C 64.140625 48.542969 64.109375 48.796875 64.109375 49.046875 C 64.109375 51.03125 65.726562 52.652344 67.707031 52.652344 C 69.683594 52.652344 71.304688 51.03125 71.304688 49.046875 C 71.304688 48.179688 70.988281 47.378906 70.484375 46.75 L 74.992188 41.519531 C 75.777344 42.039062 76.722656 42.355469 77.726562 42.355469 C 80.441406 42.355469 82.640625 40.148438 82.640625 37.425781 C 82.640625 34.699219 80.441406 32.496094 77.726562 32.496094 C 76.707031 32.496094 75.746094 32.808594 74.960938 33.34375 L 71.601562 29.488281 C 71.773438 29.203125 71.867188 28.855469 71.867188 28.496094 C 71.867188 27.941406 71.632812 27.4375 71.253906 27.078125 L 73.5 22.179688 C 73.800781 22.257812 74.113281 22.304688 74.429688 22.304688 C 75.527344 22.304688 76.515625 21.800781 77.160156 21.011719 L 80.757812 23.109375 C 80.503906 23.707031 80.363281 24.351562 80.363281 25.046875 C 80.363281 27.769531 82.5625 29.976562 85.28125 29.976562 C 85.546875 29.976562 85.8125 29.960938 86.066406 29.910156 L 87.476562 34.808594 C 86.945312 35.171875 86.597656 35.769531 86.597656 36.464844 C 86.597656 37.265625 87.070312 37.945312 87.730469 38.273438 L 87.148438 42.464844 C 85.234375 42.527344 83.695312 44.101562 83.695312 46.039062 C 83.695312 46.261719 83.710938 46.480469 83.757812 46.699219 L 78.652344 48.589844 C 78.308594 48.148438 77.773438 47.882812 77.175781 47.882812 C 76.125 47.882812 75.277344 48.734375 75.277344 49.789062 C 75.277344 50.292969 75.464844 50.734375 75.777344 51.078125 L 73.1875 55.804688 C 72.921875 55.726562 72.636719 55.679688 72.355469 55.679688 C 70.753906 55.679688 69.464844 56.96875 69.464844 58.574219 C 69.464844 60.183594 70.753906 61.472656 72.355469 61.472656 C 73.957031 61.472656 75.246094 60.183594 75.246094 58.574219 L 82.40625 57.046875 C 82.578125 57.332031 82.796875 57.566406 83.082031 57.726562 L 80.976562 67.804688 C 80.804688 67.789062 80.617188 67.773438 80.425781 67.773438 C 78.855469 67.773438 77.425781 68.433594 76.40625 69.488281 L 72.511719 66.496094 C 72.574219 66.308594 72.621094 66.089844 72.621094 65.882812 C 72.621094 64.828125 71.773438 63.976562 70.722656 63.976562 C 69.667969 63.976562 68.820312 64.828125 68.820312 65.882812 C 68.820312 66.074219 68.851562 66.246094 68.898438 66.417969 L 66.433594 68.136719 C 65.398438 66.9375 63.875 66.183594 62.179688 66.183594 C 59.070312 66.183594 56.554688 68.703125 56.554688 71.820312 C 56.554688 71.882812 56.554688 71.945312 56.554688 71.996094 L 52.347656 72.578125 C 52.113281 71.804688 51.609375 71.128906 50.964844 70.671875 L 55.457031 61.550781 C 55.929688 61.710938 56.445312 61.804688 56.980469 61.804688 C 59.570312 61.804688 61.675781 59.695312 61.675781 57.09375 C 61.675781 54.496094 59.570312 52.402344 56.980469 52.402344 C 54.65625 52.402344 52.722656 54.101562 52.347656 56.339844 L 48.640625 56.214844 C 48.40625 55.457031 47.714844 54.921875 46.898438 54.921875 C 45.894531 54.921875 45.0625 55.742188 45.0625 56.765625 C 45.0625 57.144531 45.171875 57.472656 45.359375 57.773438 L 42.390625 61.632812 C 41.636719 61.175781 40.757812 60.921875 39.832031 60.921875 C 37.066406 60.921875 34.820312 63.175781 34.820312 65.945312 C 34.820312 65.960938 34.820312 65.992188 34.820312 66.007812 L 31.382812 66.464844 C 31.003906 65.253906 30.015625 64.292969 28.773438 63.976562 L 29.105469 59.945312 C 29.921875 59.742188 30.519531 59 30.519531 58.136719 C 30.519531 57.773438 30.410156 57.425781 30.234375 57.144531 L 37.253906 48.480469 C 37.460938 48.558594 37.679688 48.589844 37.898438 48.589844 C 38.9375 48.589844 39.769531 47.757812 39.769531 46.714844 C 39.769531 45.691406 38.9375 44.84375 37.898438 44.84375 C 37.804688 44.84375 37.710938 44.84375 37.632812 44.859375 L 36.550781 42.746094 C 37.867188 41.851562 38.746094 40.324219 38.746094 38.589844 C 38.746094 35.816406 36.5 33.566406 33.738281 33.566406 C 33.707031 33.566406 33.691406 33.566406 33.675781 33.566406 Z M 49.441406 40.257812 L 50.289062 35.21875 C 50.304688 35.21875 50.335938 35.21875 50.351562 35.21875 C 51.796875 35.21875 53.054688 34.449219 53.761719 33.296875 L 59.570312 35.707031 C 59.492188 36.039062 59.445312 36.371094 59.445312 36.730469 C 59.445312 39.03125 61.300781 40.890625 63.59375 40.890625 C 65.886719 40.890625 67.738281 39.03125 67.738281 36.730469 C 67.738281 35.613281 67.296875 34.605469 66.589844 33.847656 L 69.308594 30.335938 C 69.511719 30.414062 69.734375 30.449219 69.953125 30.449219 C 70.21875 30.449219 70.46875 30.398438 70.707031 30.289062 L 74.066406 34.148438 C 73.28125 35.015625 72.808594 36.179688 72.808594 37.441406 C 72.808594 38.714844 73.296875 39.867188 74.082031 40.746094 L 69.574219 45.976562 C 69.027344 45.644531 68.398438 45.457031 67.707031 45.457031 C 66.402344 45.457031 65.273438 46.148438 64.628906 47.1875 L 60.371094 45.488281 C 60.371094 45.457031 60.371094 45.425781 60.371094 45.394531 C 60.371094 44.355469 59.539062 43.519531 58.503906 43.519531 C 57.671875 43.519531 56.964844 44.070312 56.730469 44.84375 L 53.476562 44.9375 C 53.179688 42.683594 51.5625 40.875 49.425781 40.257812 Z M 64 23.125 L 68.242188 27.597656 C 68.097656 27.863281 68.003906 28.179688 68.003906 28.511719 C 68.003906 28.902344 68.128906 29.28125 68.335938 29.597656 L 65.617188 33.109375 C 65.019531 32.761719 64.3125 32.574219 63.578125 32.574219 C 62.070312 32.574219 60.75 33.394531 60.027344 34.589844 L 54.214844 32.164062 C 54.296875 31.863281 54.328125 31.535156 54.328125 31.203125 C 54.328125 30.179688 53.933594 29.25 53.304688 28.542969 L 57.578125 23.34375 C 58.457031 23.925781 59.492188 24.257812 60.625 24.257812 C 61.894531 24.257812 63.058594 23.832031 64 23.109375 Z M 88.640625 34.511719 L 87.226562 29.597656 C 88.042969 29.25 88.734375 28.683594 89.253906 27.976562 L 94.5625 30.953125 C 94.386719 31.390625 94.292969 31.878906 94.292969 32.382812 C 94.292969 32.730469 94.339844 33.0625 94.417969 33.394531 L 90.117188 35.203125 C 89.753906 34.777344 89.238281 34.511719 88.640625 34.496094 Z M 79 78.75 L 78.164062 83.917969 C 77.066406 84.042969 76.203125 84.988281 76.203125 86.121094 C 76.203125 87.160156 76.910156 88.027344 77.867188 88.277344 L 77.945312 92.183594 C 77.914062 92.199219 77.867188 92.214844 77.835938 92.230469 L 75.085938 89.933594 C 75.214844 89.664062 75.277344 89.367188 75.277344 89.050781 C 75.277344 87.917969 74.414062 86.988281 73.3125 86.878906 L 72.84375 84.261719 C 74.414062 83.726562 75.542969 82.230469 75.542969 80.484375 C 75.542969 79.757812 75.355469 79.082031 75.007812 78.5 L 76.53125 77.285156 C 77.207031 77.964844 78.054688 78.484375 79.015625 78.734375 Z M 30.394531 42.324219 L 26.167969 48.195312 C 25.824219 48.054688 25.445312 47.960938 25.054688 47.960938 C 23.515625 47.960938 22.257812 49.222656 22.257812 50.765625 C 22.257812 51.550781 22.585938 52.277344 23.121094 52.78125 L 18.707031 59.992188 C 18.160156 59.742188 17.546875 59.617188 16.902344 59.617188 C 16.855469 59.617188 16.824219 59.617188 16.777344 59.617188 L 16.429688 57.488281 C 18.113281 56.953125 19.320312 55.378906 19.320312 53.535156 C 19.320312 51.644531 18.066406 50.054688 16.335938 49.550781 L 16.589844 47.707031 C 16.667969 47.707031 16.746094 47.707031 16.839844 47.707031 C 20.183594 47.707031 22.902344 44.984375 22.902344 41.628906 C 22.902344 41.472656 22.902344 41.332031 22.886719 41.171875 L 28.996094 40.101562 C 29.261719 40.96875 29.75 41.738281 30.394531 42.339844 Z M 34.976562 54.574219 C 34.976562 52.605469 36.582031 51 38.542969 51 C 40.507812 51 42.109375 52.605469 42.109375 54.574219 C 42.109375 56.542969 40.507812 58.152344 38.542969 58.152344 C 36.582031 58.152344 34.976562 56.542969 34.976562 54.574219 Z M 38.792969 30.589844 C 38.792969 29.550781 39.628906 28.714844 40.664062 28.714844 C 41.699219 28.714844 42.53125 29.550781 42.53125 30.589844 C 42.53125 31.613281 41.699219 32.464844 40.664062 32.464844 C 39.644531 32.464844 38.792969 31.628906 38.792969 30.589844 Z M 38.792969 30.589844 " clip-rule="evenodd"/></clipPath><linearGradient x1="39.985145" gradientTransform="matrix(1.570447, 0, 0, 1.574935, 10.777869, 13.123221)" y1="-0.154474" x2="39.673595" gradientUnits="userSpaceOnUse" y2="52.365343" id="a50cf0b0a5"><stop stop-opacity="1" stop-color="rgb(100%, 100%, 100%)" offset="0"/><stop stop-opacity="1" stop-color="rgb(99.890137%, 99.890137%, 99.890137%)" offset="0.00726688"/><stop stop-opacity="1" stop-color="rgb(99.781799%, 99.781799%, 99.781799%)" offset="0.125"/><stop stop-opacity="1" stop-color="rgb(99.641418%, 99.641418%, 99.641418%)" offset="0.140625"/><stop stop-opacity="1" stop-color="rgb(99.362183%, 99.362183%, 99.362183%)" offset="0.15625"/><stop stop-opacity="1" stop-color="rgb(99.082947%, 99.082947%, 99.082947%)" offset="0.171875"/><stop stop-opacity="1" stop-color="rgb(98.803711%, 98.803711%, 98.803711%)" offset="0.1875"/><stop stop-opacity="1" stop-color="rgb(98.526001%, 98.526001%, 98.526001%)" offset="0.203125"/><stop stop-opacity="1" stop-color="rgb(98.246765%, 98.246765%, 98.246765%)" offset="0.21875"/><stop stop-opacity="1" stop-color="rgb(97.967529%, 97.967529%, 97.967529%)" offset="0.234375"/><stop stop-opacity="1" stop-color="rgb(97.688293%, 97.688293%, 97.688293%)" offset="0.25"/><stop stop-opacity="1" stop-color="rgb(97.409058%, 97.409058%, 97.409058%)" offset="0.265625"/><stop stop-opacity="1" stop-color="rgb(97.131348%, 97.131348%, 97.131348%)" offset="0.28125"/><stop stop-opacity="1" stop-color="rgb(96.852112%, 96.852112%, 96.852112%)" offset="0.296875"/><stop stop-opacity="1" stop-color="rgb(96.572876%, 96.572876%, 96.572876%)" offset="0.3125"/><stop stop-opacity="1" stop-color="rgb(96.29364%, 96.29364%, 96.29364%)" offset="0.328125"/><stop stop-opacity="1" stop-color="rgb(96.014404%, 96.014404%, 96.014404%)" offset="0.34375"/><stop stop-opacity="1" stop-color="rgb(95.735168%, 95.735168%, 95.735168%)" offset="0.359375"/><stop stop-opacity="1" stop-color="rgb(95.457458%, 95.457458%, 95.457458%)" offset="0.375"/><stop stop-opacity="1" stop-color="rgb(95.178223%, 95.178223%, 95.178223%)" offset="0.390625"/><stop stop-opacity="1" stop-color="rgb(94.898987%, 94.898987%, 94.898987%)" offset="0.40625"/><stop stop-opacity="1" stop-color="rgb(94.619751%, 94.619751%, 94.619751%)" offset="0.421875"/><stop stop-opacity="1" stop-color="rgb(94.340515%, 94.340515%, 94.340515%)" offset="0.4375"/><stop stop-opacity="1" stop-color="rgb(94.061279%, 94.061279%, 94.061279%)" offset="0.453125"/><stop stop-opacity="1" stop-color="rgb(93.783569%, 93.783569%, 93.783569%)" offset="0.46875"/><stop stop-opacity="1" stop-color="rgb(93.504333%, 93.504333%, 93.504333%)" offset="0.484375"/><stop stop-opacity="1" stop-color="rgb(93.225098%, 93.225098%, 93.225098%)" offset="0.5"/><stop stop-opacity="1" stop-color="rgb(92.945862%, 92.945862%, 92.945862%)" offset="0.515625"/><stop stop-opacity="1" stop-color="rgb(92.666626%, 92.666626%, 92.666626%)" offset="0.53125"/><stop stop-opacity="1" stop-color="rgb(92.388916%, 92.388916%, 92.388916%)" offset="0.546875"/><stop stop-opacity="1" stop-color="rgb(92.10968%, 92.10968%, 92.10968%)" offset="0.5625"/><stop stop-opacity="1" stop-color="rgb(91.830444%, 91.830444%, 91.830444%)" offset="0.578125"/><stop stop-opacity="1" stop-color="rgb(91.551208%, 91.551208%, 91.551208%)" offset="0.59375"/><stop stop-opacity="1" stop-color="rgb(91.271973%, 91.271973%, 91.271973%)" offset="0.609375"/><stop stop-opacity="1" stop-color="rgb(90.992737%, 90.992737%, 90.992737%)" offset="0.625"/><stop stop-opacity="1" stop-color="rgb(90.715027%, 90.715027%, 90.715027%)" offset="0.640625"/><stop stop-opacity="1" stop-color="rgb(90.435791%, 90.435791%, 90.435791%)" offset="0.65625"/><stop stop-opacity="1" stop-color="rgb(90.156555%, 90.156555%, 90.156555%)" offset="0.671875"/><stop stop-opacity="1" stop-color="rgb(89.877319%, 89.877319%, 89.877319%)" offset="0.6875"/><stop stop-opacity="1" stop-color="rgb(89.598083%, 89.598083%, 89.598083%)" offset="0.703125"/><stop stop-opacity="1" stop-color="rgb(89.318848%, 89.318848%, 89.318848%)" offset="0.71875"/><stop stop-opacity="1" stop-color="rgb(89.041138%, 89.041138%, 89.041138%)" offset="0.734375"/><stop stop-opacity="1" stop-color="rgb(88.761902%, 88.761902%, 88.761902%)" offset="0.75"/><stop stop-opacity="1" stop-color="rgb(88.482666%, 88.482666%, 88.482666%)" offset="0.765625"/><stop stop-opacity="1" stop-color="rgb(88.20343%, 88.20343%, 88.20343%)" offset="0.78125"/><stop stop-opacity="1" stop-color="rgb(87.924194%, 87.924194%, 87.924194%)" offset="0.796875"/><stop stop-opacity="1" stop-color="rgb(87.644958%, 87.644958%, 87.644958%)" offset="0.8125"/><stop stop-opacity="1" stop-color="rgb(87.367249%, 87.367249%, 87.367249%)" offset="0.828125"/><stop stop-opacity="1" stop-color="rgb(87.088013%, 87.088013%, 87.088013%)" offset="0.84375"/><stop stop-opacity="1" stop-color="rgb(86.808777%, 86.808777%, 86.808777%)" offset="0.859375"/><stop stop-opacity="1" stop-color="rgb(86.529541%, 86.529541%, 86.529541%)" offset="0.875"/><stop stop-opacity="1" stop-color="rgb(86.250305%, 86.250305%, 86.250305%)" offset="0.890625"/><stop stop-opacity="1" stop-color="rgb(85.972595%, 85.972595%, 85.972595%)" offset="0.90625"/><stop stop-opacity="1" stop-color="rgb(85.693359%, 85.693359%, 85.693359%)" offset="0.921875"/><stop stop-opacity="1" stop-color="rgb(85.414124%, 85.414124%, 85.414124%)" offset="0.9375"/><stop stop-opacity="1" stop-color="rgb(85.186768%, 85.186768%, 85.186768%)" offset="0.992733"/><stop stop-opacity="1" stop-color="rgb(85.099792%, 85.099792%, 85.099792%)" offset="1"/></linearGradient></defs><g clip-path="url(#8410e337f1)"><g clip-path="url(#116c4936e5)"><path fill="url(#a50cf0b0a5)" d="M 10.777344 13.109375 L 10.777344 95.222656 L 111.820312 95.222656 L 111.820312 13.109375 Z M 10.777344 13.109375 " fill-rule="nonzero"/></g></g><g fill="#ffffff" fill-opacity="1"><g transform="translate(116.591749, 63.730019)"><g><path d="M 8.96875 -7.34375 L 8.96875 -0.15625 C 8.6875 -0.0703125 8.25 0.00390625 7.65625 0.078125 C 7.070312 0.148438 6.492188 0.1875 5.921875 0.1875 C 5.347656 0.1875 4.84375 0.140625 4.40625 0.046875 C 3.96875 -0.0351562 3.601562 -0.1875 3.3125 -0.40625 C 3.03125 -0.632812 2.8125 -0.945312 2.65625 -1.34375 C 2.507812 -1.75 2.4375 -2.273438 2.4375 -2.921875 L 2.4375 -20.59375 C 2.4375 -21.113281 2.578125 -21.515625 2.859375 -21.796875 C 3.148438 -22.085938 3.546875 -22.320312 4.046875 -22.5 C 4.898438 -22.800781 5.890625 -23.019531 7.015625 -23.15625 C 8.140625 -23.289062 9.335938 -23.359375 10.609375 -23.359375 C 14.054688 -23.359375 16.65625 -22.632812 18.40625 -21.1875 C 20.15625 -19.738281 21.03125 -17.773438 21.03125 -15.296875 C 21.03125 -13.742188 20.628906 -12.414062 19.828125 -11.3125 C 19.035156 -10.21875 18.085938 -9.375 16.984375 -8.78125 C 17.890625 -7.550781 18.78125 -6.398438 19.65625 -5.328125 C 20.53125 -4.253906 21.21875 -3.28125 21.71875 -2.40625 C 21.46875 -1.53125 21.007812 -0.859375 20.34375 -0.390625 C 19.675781 0.0664062 18.929688 0.296875 18.109375 0.296875 C 17.554688 0.296875 17.082031 0.234375 16.6875 0.109375 C 16.289062 -0.015625 15.941406 -0.1875 15.640625 -0.40625 C 15.335938 -0.632812 15.0625 -0.910156 14.8125 -1.234375 C 14.5625 -1.554688 14.320312 -1.90625 14.09375 -2.28125 L 10.953125 -7.34375 Z M 11.328125 -12.34375 C 12.273438 -12.34375 13.023438 -12.582031 13.578125 -13.0625 C 14.128906 -13.550781 14.40625 -14.269531 14.40625 -15.21875 C 14.40625 -16.175781 14.097656 -16.894531 13.484375 -17.375 C 12.867188 -17.863281 11.898438 -18.109375 10.578125 -18.109375 C 10.203125 -18.109375 9.898438 -18.09375 9.671875 -18.0625 C 9.453125 -18.039062 9.203125 -18.007812 8.921875 -17.96875 L 8.921875 -12.34375 Z M 11.328125 -12.34375 "/></g></g></g><g fill="#ffffff" fill-opacity="1"><g transform="translate(144.675247, 63.730019)"><g><path d="M 20.8125 -9.109375 C 20.8125 -7.554688 20.570312 -6.175781 20.09375 -4.96875 C 19.625 -3.757812 18.957031 -2.738281 18.09375 -1.90625 C 17.226562 -1.082031 16.195312 -0.457031 15 -0.03125 C 13.800781 0.382812 12.460938 0.59375 10.984375 0.59375 C 9.515625 0.59375 8.175781 0.367188 6.96875 -0.078125 C 5.769531 -0.523438 4.738281 -1.164062 3.875 -2 C 3.019531 -2.84375 2.351562 -3.863281 1.875 -5.0625 C 1.394531 -6.257812 1.15625 -7.609375 1.15625 -9.109375 C 1.15625 -10.585938 1.394531 -11.925781 1.875 -13.125 C 2.351562 -14.320312 3.019531 -15.335938 3.875 -16.171875 C 4.738281 -17.015625 5.769531 -17.660156 6.96875 -18.109375 C 8.175781 -18.554688 9.515625 -18.78125 10.984375 -18.78125 C 12.460938 -18.78125 13.800781 -18.550781 15 -18.09375 C 16.195312 -17.632812 17.226562 -16.984375 18.09375 -16.140625 C 18.957031 -15.304688 19.625 -14.285156 20.09375 -13.078125 C 20.570312 -11.878906 20.8125 -10.554688 20.8125 -9.109375 Z M 7.6875 -9.109375 C 7.6875 -7.585938 7.976562 -6.421875 8.5625 -5.609375 C 9.15625 -4.796875 9.976562 -4.390625 11.03125 -4.390625 C 12.070312 -4.390625 12.875 -4.800781 13.4375 -5.625 C 14 -6.445312 14.28125 -7.609375 14.28125 -9.109375 C 14.28125 -10.609375 13.992188 -11.765625 13.421875 -12.578125 C 12.847656 -13.390625 12.035156 -13.796875 10.984375 -13.796875 C 9.929688 -13.796875 9.117188 -13.390625 8.546875 -12.578125 C 7.972656 -11.765625 7.6875 -10.609375 7.6875 -9.109375 Z M 7.6875 -9.109375 "/></g></g></g><g fill="#ffffff" fill-opacity="1"><g transform="translate(171.896394, 63.730019)"><g><path d="M 10.6875 -18.78125 C 11.707031 -18.78125 12.710938 -18.632812 13.703125 -18.34375 C 14.691406 -18.0625 15.550781 -17.632812 16.28125 -17.0625 C 17.03125 -17.5625 17.875 -17.972656 18.8125 -18.296875 C 19.75 -18.617188 20.878906 -18.78125 22.203125 -18.78125 C 23.148438 -18.78125 24.078125 -18.65625 24.984375 -18.40625 C 25.898438 -18.15625 26.710938 -17.757812 27.421875 -17.21875 C 28.140625 -16.6875 28.710938 -15.976562 29.140625 -15.09375 C 29.566406 -14.207031 29.78125 -13.125 29.78125 -11.84375 L 29.78125 -0.03125 C 29.53125 0.0390625 29.132812 0.113281 28.59375 0.1875 C 28.050781 0.257812 27.492188 0.296875 26.921875 0.296875 C 26.367188 0.296875 25.875 0.257812 25.4375 0.1875 C 25 0.113281 24.628906 -0.03125 24.328125 -0.25 C 24.035156 -0.476562 23.804688 -0.785156 23.640625 -1.171875 C 23.484375 -1.566406 23.40625 -2.078125 23.40625 -2.703125 L 23.40625 -11.65625 C 23.40625 -12.40625 23.191406 -12.945312 22.765625 -13.28125 C 22.335938 -13.625 21.757812 -13.796875 21.03125 -13.796875 C 20.6875 -13.796875 20.3125 -13.710938 19.90625 -13.546875 C 19.507812 -13.390625 19.210938 -13.222656 19.015625 -13.046875 C 19.035156 -12.953125 19.046875 -12.859375 19.046875 -12.765625 C 19.046875 -12.679688 19.046875 -12.601562 19.046875 -12.53125 L 19.046875 -0.03125 C 18.773438 0.0390625 18.367188 0.113281 17.828125 0.1875 C 17.296875 0.257812 16.753906 0.296875 16.203125 0.296875 C 15.648438 0.296875 15.15625 0.257812 14.71875 0.1875 C 14.28125 0.113281 13.910156 -0.03125 13.609375 -0.25 C 13.304688 -0.476562 13.070312 -0.785156 12.90625 -1.171875 C 12.75 -1.566406 12.671875 -2.078125 12.671875 -2.703125 L 12.671875 -11.65625 C 12.671875 -12.40625 12.4375 -12.945312 11.96875 -13.28125 C 11.507812 -13.625 10.957031 -13.796875 10.3125 -13.796875 C 9.863281 -13.796875 9.472656 -13.726562 9.140625 -13.59375 C 8.816406 -13.457031 8.546875 -13.328125 8.328125 -13.203125 L 8.328125 -0.03125 C 8.078125 0.0390625 7.679688 0.113281 7.140625 0.1875 C 6.609375 0.257812 6.050781 0.296875 5.46875 0.296875 C 4.925781 0.296875 4.4375 0.257812 4 0.1875 C 3.5625 0.113281 3.191406 -0.03125 2.890625 -0.25 C 2.585938 -0.476562 2.351562 -0.785156 2.1875 -1.171875 C 2.03125 -1.566406 1.953125 -2.078125 1.953125 -2.703125 L 1.953125 -14.03125 C 1.953125 -14.695312 2.09375 -15.226562 2.375 -15.625 C 2.664062 -16.03125 3.0625 -16.410156 3.5625 -16.765625 C 4.414062 -17.359375 5.472656 -17.84375 6.734375 -18.21875 C 7.992188 -18.59375 9.3125 -18.78125 10.6875 -18.78125 Z M 10.6875 -18.78125 "/></g></g></g><g fill="#ffffff" fill-opacity="1"><g transform="translate(208.865789, 63.730019)"><g><path d="M 11.59375 0.59375 C 10.113281 0.59375 8.742188 0.390625 7.484375 -0.015625 C 6.222656 -0.429688 5.125 -1.050781 4.1875 -1.875 C 3.25 -2.695312 2.507812 -3.734375 1.96875 -4.984375 C 1.425781 -6.234375 1.15625 -7.695312 1.15625 -9.375 C 1.15625 -11.019531 1.425781 -12.4375 1.96875 -13.625 C 2.507812 -14.8125 3.21875 -15.785156 4.09375 -16.546875 C 4.96875 -17.316406 5.96875 -17.878906 7.09375 -18.234375 C 8.21875 -18.597656 9.363281 -18.78125 10.53125 -18.78125 C 11.863281 -18.78125 13.070312 -18.582031 14.15625 -18.1875 C 15.238281 -17.789062 16.175781 -17.238281 16.96875 -16.53125 C 17.757812 -15.832031 18.375 -14.992188 18.8125 -14.015625 C 19.25 -13.046875 19.46875 -11.988281 19.46875 -10.84375 C 19.46875 -9.988281 19.226562 -9.335938 18.75 -8.890625 C 18.269531 -8.441406 17.609375 -8.15625 16.765625 -8.03125 L 7.5 -6.640625 C 7.769531 -5.816406 8.332031 -5.195312 9.1875 -4.78125 C 10.039062 -4.363281 11.015625 -4.15625 12.109375 -4.15625 C 13.140625 -4.15625 14.109375 -4.285156 15.015625 -4.546875 C 15.929688 -4.816406 16.675781 -5.125 17.25 -5.46875 C 17.644531 -5.21875 17.976562 -4.867188 18.25 -4.421875 C 18.53125 -3.972656 18.671875 -3.5 18.671875 -3 C 18.671875 -1.875 18.144531 -1.035156 17.09375 -0.484375 C 16.300781 -0.0546875 15.40625 0.226562 14.40625 0.375 C 13.40625 0.519531 12.46875 0.59375 11.59375 0.59375 Z M 10.53125 -14.140625 C 9.9375 -14.140625 9.421875 -14.035156 8.984375 -13.828125 C 8.546875 -13.628906 8.1875 -13.375 7.90625 -13.0625 C 7.632812 -12.75 7.429688 -12.398438 7.296875 -12.015625 C 7.160156 -11.628906 7.078125 -11.238281 7.046875 -10.84375 L 13.46875 -11.890625 C 13.382812 -12.390625 13.101562 -12.890625 12.625 -13.390625 C 12.15625 -13.890625 11.457031 -14.140625 10.53125 -14.140625 Z M 10.53125 -14.140625 "/></g></g></g><g fill="#ffffff" fill-opacity="1"><g transform="translate(234.699694, 63.730019)"><g><path d="M 20.8125 -9.109375 C 20.8125 -7.554688 20.570312 -6.175781 20.09375 -4.96875 C 19.625 -3.757812 18.957031 -2.738281 18.09375 -1.90625 C 17.226562 -1.082031 16.195312 -0.457031 15 -0.03125 C 13.800781 0.382812 12.460938 0.59375 10.984375 0.59375 C 9.515625 0.59375 8.175781 0.367188 6.96875 -0.078125 C 5.769531 -0.523438 4.738281 -1.164062 3.875 -2 C 3.019531 -2.84375 2.351562 -3.863281 1.875 -5.0625 C 1.394531 -6.257812 1.15625 -7.609375 1.15625 -9.109375 C 1.15625 -10.585938 1.394531 -11.925781 1.875 -13.125 C 2.351562 -14.320312 3.019531 -15.335938 3.875 -16.171875 C 4.738281 -17.015625 5.769531 -17.660156 6.96875 -18.109375 C 8.175781 -18.554688 9.515625 -18.78125 10.984375 -18.78125 C 12.460938 -18.78125 13.800781 -18.550781 15 -18.09375 C 16.195312 -17.632812 17.226562 -16.984375 18.09375 -16.140625 C 18.957031 -15.304688 19.625 -14.285156 20.09375 -13.078125 C 20.570312 -11.878906 20.8125 -10.554688 20.8125 -9.109375 Z M 7.6875 -9.109375 C 7.6875 -7.585938 7.976562 -6.421875 8.5625 -5.609375 C 9.15625 -4.796875 9.976562 -4.390625 11.03125 -4.390625 C 12.070312 -4.390625 12.875 -4.800781 13.4375 -5.625 C 14 -6.445312 14.28125 -7.609375 14.28125 -9.109375 C 14.28125 -10.609375 13.992188 -11.765625 13.421875 -12.578125 C 12.847656 -13.390625 12.035156 -13.796875 10.984375 -13.796875 C 9.929688 -13.796875 9.117188 -13.390625 8.546875 -12.578125 C 7.972656 -11.765625 7.6875 -10.609375 7.6875 -9.109375 Z M 7.6875 -9.109375 "/></g></g></g><g fill="#ffffff" fill-opacity="1"><g transform="translate(261.920836, 63.730019)"><g><path d="M 0.828125 -3.03125 C 0.828125 -4.082031 1.148438 -4.957031 1.796875 -5.65625 C 2.453125 -6.363281 3.34375 -6.71875 4.46875 -6.71875 C 5.59375 -6.71875 6.476562 -6.363281 7.125 -5.65625 C 7.769531 -4.957031 8.09375 -4.082031 8.09375 -3.03125 C 8.09375 -1.988281 7.769531 -1.113281 7.125 -0.40625 C 6.476562 0.289062 5.59375 0.640625 4.46875 0.640625 C 3.34375 0.640625 2.453125 0.289062 1.796875 -0.40625 C 1.148438 -1.113281 0.828125 -1.988281 0.828125 -3.03125 Z M 0.828125 -3.03125 "/></g></g></g><g fill="#ffffff" fill-opacity="1"><g transform="translate(276.09433, 63.730019)"><g><path d="M 7.28125 -22.046875 C 7.695312 -22.296875 8.335938 -22.53125 9.203125 -22.75 C 10.066406 -22.976562 10.9375 -23.09375 11.8125 -23.09375 C 13.0625 -23.09375 14.164062 -22.910156 15.125 -22.546875 C 16.09375 -22.191406 16.710938 -21.625 16.984375 -20.84375 C 17.429688 -19.550781 17.914062 -18.039062 18.4375 -16.3125 C 18.96875 -14.582031 19.492188 -12.800781 20.015625 -10.96875 C 20.546875 -9.132812 21.0625 -7.320312 21.5625 -5.53125 C 22.0625 -3.738281 22.5 -2.15625 22.875 -0.78125 C 22.570312 -0.4375 22.117188 -0.160156 21.515625 0.046875 C 20.921875 0.265625 20.210938 0.375 19.390625 0.375 C 18.785156 0.375 18.273438 0.320312 17.859375 0.21875 C 17.453125 0.125 17.117188 -0.0195312 16.859375 -0.21875 C 16.597656 -0.425781 16.382812 -0.691406 16.21875 -1.015625 C 16.050781 -1.335938 15.90625 -1.710938 15.78125 -2.140625 L 15.109375 -4.71875 L 8.328125 -4.71875 C 8.128906 -3.96875 7.925781 -3.191406 7.71875 -2.390625 C 7.519531 -1.597656 7.320312 -0.828125 7.125 -0.078125 C 6.769531 0.046875 6.398438 0.148438 6.015625 0.234375 C 5.628906 0.328125 5.160156 0.375 4.609375 0.375 C 3.335938 0.375 2.394531 0.15625 1.78125 -0.28125 C 1.164062 -0.71875 0.859375 -1.320312 0.859375 -2.09375 C 0.859375 -2.445312 0.90625 -2.796875 1 -3.140625 C 1.101562 -3.492188 1.21875 -3.910156 1.34375 -4.390625 C 1.519531 -5.066406 1.765625 -5.90625 2.078125 -6.90625 C 2.390625 -7.90625 2.734375 -8.984375 3.109375 -10.140625 C 3.484375 -11.304688 3.882812 -12.5 4.3125 -13.71875 C 4.738281 -14.945312 5.140625 -16.101562 5.515625 -17.1875 C 5.890625 -18.28125 6.234375 -19.25 6.546875 -20.09375 C 6.859375 -20.945312 7.101562 -21.597656 7.28125 -22.046875 Z M 11.78125 -17.21875 C 11.425781 -16.164062 11.03125 -14.992188 10.59375 -13.703125 C 10.15625 -12.421875 9.757812 -11.113281 9.40625 -9.78125 L 14.0625 -9.78125 C 13.707031 -11.132812 13.347656 -12.453125 12.984375 -13.734375 C 12.628906 -15.023438 12.300781 -16.1875 12 -17.21875 Z M 11.78125 -17.21875 "/></g></g></g><g fill="#ffffff" fill-opacity="1"><g transform="translate(304.852713, 63.730019)"><g><path d="M 9 -0.15625 C 8.726562 -0.0703125 8.296875 0.00390625 7.703125 0.078125 C 7.117188 0.148438 6.539062 0.1875 5.96875 0.1875 C 5.382812 0.1875 4.875 0.140625 4.4375 0.046875 C 4 -0.0351562 3.628906 -0.1875 3.328125 -0.40625 C 3.035156 -0.632812 2.8125 -0.945312 2.65625 -1.34375 C 2.507812 -1.75 2.4375 -2.273438 2.4375 -2.921875 L 2.4375 -22.71875 C 2.707031 -22.769531 3.144531 -22.835938 3.75 -22.921875 C 4.351562 -23.015625 4.925781 -23.0625 5.46875 -23.0625 C 6.050781 -23.0625 6.5625 -23.015625 7 -22.921875 C 7.4375 -22.835938 7.800781 -22.679688 8.09375 -22.453125 C 8.394531 -22.234375 8.617188 -21.921875 8.765625 -21.515625 C 8.921875 -21.117188 9 -20.597656 9 -19.953125 Z M 9 -0.15625 "/></g></g></g></svg>